<?xml version="1.0" encoding="UTF-8"?>
<svg version="1.1" xmlns="http://www.w3.org/2000/svg" width="1024" height="1024">
<path d="M0 0 C1.77682905 1.1595116 3.62439979 2.20964515 5.484375 3.23046875 C9.14860131 5.30501008 12.2220107 7.79999924 15.375 10.57421875 C16.51865317 11.56481674 17.66319712 12.55438718 18.80859375 13.54296875 C19.37046387 14.02894531 19.93233398 14.51492187 20.51123047 15.015625 C22.76893703 16.93382168 25.10660958 18.7460694 27.4375 20.57421875 C38.61419682 29.68903592 49.91194357 40.47778693 58.125 52.38671875 C58.125 53.04671875 58.125 53.70671875 58.125 54.38671875 C58.785 54.38671875 59.445 54.38671875 60.125 54.38671875 C61.6328125 56.28515625 61.6328125 56.28515625 63.25 58.76171875 C64.05824219 59.97988281 64.05824219 59.97988281 64.8828125 61.22265625 C66.125 63.38671875 66.125 63.38671875 66.125 65.38671875 C66.785 65.38671875 67.445 65.38671875 68.125 65.38671875 C69.74609375 67.6171875 69.74609375 67.6171875 71.5625 70.57421875 C72.15933594 71.53714844 72.75617187 72.50007813 73.37109375 73.4921875 C73.94988281 74.44738281 74.52867187 75.40257812 75.125 76.38671875 C75.59292969 77.15371094 76.06085937 77.92070312 76.54296875 78.7109375 C82.61453127 88.98012349 88.50611894 99.37503855 93.125 110.38671875 C93.54265625 111.35867188 93.9603125 112.330625 94.390625 113.33203125 C98.98533859 124.15451929 102.7824324 135.11847539 106.125 146.38671875 C106.47763916 147.54421631 106.47763916 147.54421631 106.83740234 148.72509766 C110.14768371 159.60714783 112.8631577 170.31294481 114.54296875 181.56640625 C115.09405449 185.18359992 115.81494586 188.69452819 116.66015625 192.25 C117.45512011 195.90416163 117.99477715 199.6016075 118.5625 203.296875 C118.98728125 205.63022202 119.52898582 207.94269537 120.125 210.23828125 C121.18364314 214.36944005 121.69585434 218.46274338 122.125 222.69921875 C123.02780098 230.87458321 124.38512716 238.85462573 126.0703125 246.90625 C127.73811697 254.94772976 129.29690688 262.89847257 130.125 271.07421875 C132.73548667 296.28524532 141.52798203 323.17001797 156.83984375 343.49609375 C158.125 345.38671875 158.125 345.38671875 158.125 347.38671875 C158.785 347.38671875 159.445 347.38671875 160.125 347.38671875 C161.35106617 348.96738249 162.50478665 350.60435392 163.625 352.26171875 C167.22542327 357.35579588 171.18500037 361.57786526 175.6640625 365.8984375 C178.84261583 369.11230809 181.59118513 372.57445848 184.3359375 376.16015625 C186.07259329 378.40534218 186.07259329 378.40534218 188.05859375 380.3125 C198.52955366 390.82304766 207.13278812 404.86874314 213.125 418.38671875 C213.44855469 419.1034375 213.77210938 419.82015625 214.10546875 420.55859375 C222.74429901 440.81516126 225.5013702 463.98323614 217.5625 484.88671875 C210.76411276 501.51165187 198.69639221 513.88264436 182.24072266 521.2277832 C177.417276 523.14421541 172.61604904 524.25842238 167.5 525.07421875 C166.71077148 525.20086914 165.92154297 525.32751953 165.10839844 525.45800781 C156.17410128 526.79941787 147.50673071 526.59865314 138.5078125 526.046875 C137.51749023 525.99047852 136.52716797 525.93408203 135.50683594 525.87597656 C133.53251627 525.75991555 131.55904008 525.62824457 129.58691406 525.47949219 C128.6790918 525.42438477 127.77126953 525.36927734 126.8359375 525.3125 C126.02431152 525.25489502 125.21268555 525.19729004 124.37646484 525.13793945 C121.48541374 525.45739088 120.21450729 526.39790713 118.125 528.38671875 C114.7856811 538.40467545 117.21122236 551.82740022 120.09375 561.70703125 C127.40633565 587.79966642 126.88063938 616.12783284 113.63671875 640.078125 C102.80450137 658.25246586 87.36701677 669.62696372 67.125 675.38671875 C63.09201245 676.11998921 59.2186316 676.35942787 55.125 676.38671875 C54.05507813 676.42410156 52.98515625 676.46148438 51.8828125 676.5 C40.83930717 676.74685482 31.17219453 674.77867326 20.9375 670.69921875 C20.0398291 670.34907715 19.1421582 669.99893555 18.21728516 669.63818359 C-3.06361172 661.2609776 -3.06361172 661.2609776 -8.875 657.38671875 C-11.90938034 656.47310151 -15.02164886 655.89745836 -18.125 655.26171875 C-19.37603516 654.98908203 -19.37603516 654.98908203 -20.65234375 654.7109375 C-31.89698615 652.36315502 -42.86274844 653.62614343 -53 659.44921875 C-61.87792861 665.64487957 -69.56501788 673.90149906 -77.04199219 681.67797852 C-78.28349554 682.95054058 -79.5752242 684.1737358 -80.875 685.38671875 C-81.535 685.38671875 -82.195 685.38671875 -82.875 685.38671875 C-83.205 686.37671875 -83.535 687.36671875 -83.875 688.38671875 C-101.45727059 702.85633857 -123.98774089 711.5531112 -146.875 710.38671875 C-150.22663385 709.9661678 -153.5090745 709.33732829 -156.8125 708.63671875 C-157.68422852 708.45625 -158.55595703 708.27578125 -159.45410156 708.08984375 C-165.82455752 706.72220207 -171.90244361 705.02842638 -177.875 702.38671875 C-178.88820313 701.94392578 -178.88820313 701.94392578 -179.921875 701.4921875 C-187.23226925 698.0563022 -194.69727806 693.59736739 -200.875 688.38671875 C-200.875 687.72671875 -200.875 687.06671875 -200.875 686.38671875 C-202.525 685.72671875 -204.175 685.06671875 -205.875 684.38671875 C-205.875 683.72671875 -205.875 683.06671875 -205.875 682.38671875 C-206.535 682.38671875 -207.195 682.38671875 -207.875 682.38671875 C-207.875 681.72671875 -207.875 681.06671875 -207.875 680.38671875 C-209.195 680.05671875 -210.515 679.72671875 -211.875 679.38671875 C-211.875 678.72671875 -211.875 678.06671875 -211.875 677.38671875 C-212.514375 677.11859375 -213.15375 676.85046875 -213.8125 676.57421875 C-215.875 675.38671875 -215.875 675.38671875 -216.875 672.38671875 C-218.18283414 671.6713223 -219.52092439 671.01017802 -220.875 670.38671875 C-222.15687437 669.42791841 -223.4081293 668.42677918 -224.625 667.38671875 C-225.23859375 666.87109375 -225.8521875 666.35546875 -226.484375 665.82421875 C-227.875 664.38671875 -227.875 664.38671875 -227.875 662.38671875 C-228.535 662.38671875 -229.195 662.38671875 -229.875 662.38671875 C-229.875 661.72671875 -229.875 661.06671875 -229.875 660.38671875 C-230.45765625 660.10699219 -231.0403125 659.82726562 -231.640625 659.5390625 C-233.74267822 658.45496162 -235.65574984 657.25527103 -237.625 655.94921875 C-249.21156741 648.6211472 -263.23943322 647.34113025 -276.5 650.29296875 C-286.54932869 652.87264403 -296.21286076 656.64986575 -305.875 660.38671875 C-327.3215576 668.62263907 -349.2353621 669.46153302 -370.6875 660.57421875 C-375.97733542 657.99580768 -381.21117871 654.97619549 -385.875 651.38671875 C-386.37 649.90171875 -386.37 649.90171875 -386.875 648.38671875 C-388.87516466 647.17789779 -388.87516466 647.17789779 -390.875 646.38671875 C-390.875 645.72671875 -390.875 645.06671875 -390.875 644.38671875 C-391.4525 644.15984375 -392.03 643.93296875 -392.625 643.69921875 C-401.20462595 638.69443695 -405.84541419 625.21348731 -408.4375 616.19921875 C-415.25265322 589.79946734 -410.64304152 562.55092806 -404.140625 536.4375 C-402.95926998 531.27267349 -402.81008896 527.68606448 -404.3359375 522.55859375 C-404.62001465 521.5850293 -404.9040918 520.61146484 -405.19677734 519.60839844 C-405.53249756 518.50866699 -405.53249756 518.50866699 -405.875 517.38671875 C-406.60501221 517.33136963 -407.33502441 517.27602051 -408.0871582 517.21899414 C-411.45400307 516.96324061 -414.8207514 516.70623637 -418.1875 516.44921875 C-419.33541016 516.36220703 -420.48332031 516.27519531 -421.66601562 516.18554688 C-423.96494682 516.00970794 -426.26361716 515.83042468 -428.56201172 515.64770508 C-430.67226328 515.4814664 -432.78324511 515.32408875 -434.89501953 515.1784668 C-440.57794193 514.74794237 -445.71706718 513.86777711 -451.125 512.07421875 C-451.77984375 511.87376953 -452.4346875 511.67332031 -453.109375 511.46679688 C-457.75652127 509.97768155 -461.70553283 507.91972407 -465.875 505.38671875 C-465.875 504.72671875 -465.875 504.06671875 -465.875 503.38671875 C-466.45507812 503.28230469 -467.03515625 503.17789063 -467.6328125 503.0703125 C-474.61961081 500.94019106 -479.12589887 494.12998837 -482.49609375 488.05078125 C-482.95113281 487.17164063 -483.40617188 486.2925 -483.875 485.38671875 C-484.34035156 484.50757813 -484.80570313 483.6284375 -485.28515625 482.72265625 C-494.00596392 465.07764016 -492.42756261 443.30864408 -487.13671875 424.8046875 C-480.18928305 405.47698723 -466.82493719 388.96394935 -453.875 373.38671875 C-453.04959717 372.37424072 -453.04959717 372.37424072 -452.20751953 371.34130859 C-451.67626465 370.70016113 -451.14500977 370.05901367 -450.59765625 369.3984375 C-450.12207275 368.81924561 -449.64648926 368.24005371 -449.15649414 367.64331055 C-447.875 366.38671875 -447.875 366.38671875 -445.875 366.38671875 C-445.52308594 365.56880859 -445.52308594 365.56880859 -445.1640625 364.734375 C-443.52731745 361.75351508 -441.46765656 359.40233033 -439.25 356.82421875 C-423.01290272 337.61785107 -413.41503005 317.24388183 -405.875 293.38671875 C-405.65924316 292.70609375 -405.44348633 292.02546875 -405.22119141 291.32421875 C-402.6054459 282.96092068 -400.81384442 274.52616793 -399.31542969 265.90380859 C-398.81762697 263.05882741 -398.30400419 260.21692862 -397.7890625 257.375 C-395.89535805 246.89229551 -394.04106183 236.40370285 -392.25390625 225.90234375 C-392.1180864 225.10512405 -391.98226654 224.30790436 -391.84233093 223.48652649 C-391.17213687 219.54980134 -390.50506422 215.61258191 -389.8425293 211.67456055 C-389.59820755 210.23355051 -389.35382575 208.79255066 -389.109375 207.3515625 C-388.78791504 205.44298462 -388.78791504 205.44298462 -388.45996094 203.49584961 C-387.875 200.38671875 -387.875 200.38671875 -386.875 197.38671875 C-386.56768666 195.59059689 -386.26270215 193.79401182 -385.97509766 191.99462891 C-384.59946255 183.46645866 -382.59318593 175.2705727 -380.1875 166.98046875 C-379.07122878 163.1326162 -378.07199807 159.26432152 -377.09790039 155.37841797 C-371.34207282 132.5948359 -362.96269882 110.55658483 -350.875 90.38671875 C-349.90726503 88.64126964 -348.93955841 86.89579804 -347.97705078 85.14746094 C-343.52294705 77.12072528 -338.36241083 69.73513066 -332.875 62.38671875 C-332.41706055 61.76716309 -331.95912109 61.14760742 -331.48730469 60.50927734 C-330.12514294 58.67012167 -328.75258195 56.83934439 -327.375 55.01171875 C-326.74295654 54.16275024 -326.74295654 54.16275024 -326.09814453 53.29663086 C-325.07201262 51.95500858 -323.97910858 50.66493676 -322.875 49.38671875 C-322.215 49.38671875 -321.555 49.38671875 -320.875 49.38671875 C-320.77622559 48.80422363 -320.67745117 48.22172852 -320.57568359 47.62158203 C-319.73601785 44.94342864 -318.59010682 43.6603015 -316.6640625 41.62890625 C-316.00245117 40.92620605 -315.34083984 40.22350586 -314.65917969 39.49951172 C-313.94665039 38.76104004 -313.23412109 38.02256836 -312.5 37.26171875 C-311.7668457 36.49617676 -311.03369141 35.73063477 -310.27832031 34.94189453 C-292.16520627 16.16455342 -271.72200271 1.9008202 -248.875 -10.61328125 C-248.18180664 -10.99452148 -247.48861328 -11.37576172 -246.77441406 -11.76855469 C-170.61150754 -53.12342705 -71.48851208 -49.59515526 0 0 Z " fill="#FBD20C" transform="translate(643.875,156.61328125)"/>
<path d="M0 0 C1.77682905 1.1595116 3.62439979 2.20964515 5.484375 3.23046875 C9.14860131 5.30501008 12.2220107 7.79999924 15.375 10.57421875 C16.51865317 11.56481674 17.66319712 12.55438718 18.80859375 13.54296875 C19.37046387 14.02894531 19.93233398 14.51492187 20.51123047 15.015625 C22.76893703 16.93382168 25.10660958 18.7460694 27.4375 20.57421875 C38.61419682 29.68903592 49.91194357 40.47778693 58.125 52.38671875 C58.125 53.04671875 58.125 53.70671875 58.125 54.38671875 C58.785 54.38671875 59.445 54.38671875 60.125 54.38671875 C61.6328125 56.28515625 61.6328125 56.28515625 63.25 58.76171875 C64.05824219 59.97988281 64.05824219 59.97988281 64.8828125 61.22265625 C66.125 63.38671875 66.125 63.38671875 66.125 65.38671875 C66.785 65.38671875 67.445 65.38671875 68.125 65.38671875 C69.74609375 67.6171875 69.74609375 67.6171875 71.5625 70.57421875 C72.15933594 71.53714844 72.75617187 72.50007813 73.37109375 73.4921875 C73.94988281 74.44738281 74.52867187 75.40257812 75.125 76.38671875 C75.59292969 77.15371094 76.06085937 77.92070312 76.54296875 78.7109375 C82.61453127 88.98012349 88.50611894 99.37503855 93.125 110.38671875 C93.54265625 111.35867188 93.9603125 112.330625 94.390625 113.33203125 C98.98533859 124.15451929 102.7824324 135.11847539 106.125 146.38671875 C106.47763916 147.54421631 106.47763916 147.54421631 106.83740234 148.72509766 C110.14768371 159.60714783 112.8631577 170.31294481 114.54296875 181.56640625 C115.09405449 185.18359992 115.81494586 188.69452819 116.66015625 192.25 C117.45512011 195.90416163 117.99477715 199.6016075 118.5625 203.296875 C118.98728125 205.63022202 119.52898582 207.94269537 120.125 210.23828125 C121.18364314 214.36944005 121.69585434 218.46274338 122.125 222.69921875 C123.02780098 230.87458321 124.38512716 238.85462573 126.0703125 246.90625 C127.73811697 254.94772976 129.29690688 262.89847257 130.125 271.07421875 C132.73548667 296.28524532 141.52798203 323.17001797 156.83984375 343.49609375 C158.125 345.38671875 158.125 345.38671875 158.125 347.38671875 C158.785 347.38671875 159.445 347.38671875 160.125 347.38671875 C161.35106617 348.96738249 162.50478665 350.60435392 163.625 352.26171875 C167.22542327 357.35579588 171.18500037 361.57786526 175.6640625 365.8984375 C178.84261583 369.11230809 181.59118513 372.57445848 184.3359375 376.16015625 C186.07259329 378.40534218 186.07259329 378.40534218 188.05859375 380.3125 C198.52955366 390.82304766 207.13278812 404.86874314 213.125 418.38671875 C213.44855469 419.1034375 213.77210938 419.82015625 214.10546875 420.55859375 C222.74429901 440.81516126 225.5013702 463.98323614 217.5625 484.88671875 C210.76411276 501.51165187 198.69639221 513.88264436 182.24072266 521.2277832 C177.417276 523.14421541 172.61604904 524.25842238 167.5 525.07421875 C166.71077148 525.20086914 165.92154297 525.32751953 165.10839844 525.45800781 C156.17410128 526.79941787 147.50673071 526.59865314 138.5078125 526.046875 C137.51749023 525.99047852 136.52716797 525.93408203 135.50683594 525.87597656 C133.53251627 525.75991555 131.55904008 525.62824457 129.58691406 525.47949219 C128.6790918 525.42438477 127.77126953 525.36927734 126.8359375 525.3125 C126.02431152 525.25489502 125.21268555 525.19729004 124.37646484 525.13793945 C121.48541374 525.45739088 120.21450729 526.39790713 118.125 528.38671875 C114.7856811 538.40467545 117.21122236 551.82740022 120.09375 561.70703125 C127.40633565 587.79966642 126.88063938 616.12783284 113.63671875 640.078125 C102.80450137 658.25246586 87.36701677 669.62696372 67.125 675.38671875 C63.09201245 676.11998921 59.2186316 676.35942787 55.125 676.38671875 C54.05507813 676.42410156 52.98515625 676.46148438 51.8828125 676.5 C40.83930717 676.74685482 31.17219453 674.77867326 20.9375 670.69921875 C20.0398291 670.34907715 19.1421582 669.99893555 18.21728516 669.63818359 C-3.06361172 661.2609776 -3.06361172 661.2609776 -8.875 657.38671875 C-11.90938034 656.47310151 -15.02164886 655.89745836 -18.125 655.26171875 C-19.37603516 654.98908203 -19.37603516 654.98908203 -20.65234375 654.7109375 C-31.89698615 652.36315502 -42.86274844 653.62614343 -53 659.44921875 C-61.87792861 665.64487957 -69.56501788 673.90149906 -77.04199219 681.67797852 C-78.28349554 682.95054058 -79.5752242 684.1737358 -80.875 685.38671875 C-81.535 685.38671875 -82.195 685.38671875 -82.875 685.38671875 C-83.205 686.37671875 -83.535 687.36671875 -83.875 688.38671875 C-101.45727059 702.85633857 -123.98774089 711.5531112 -146.875 710.38671875 C-150.22663385 709.9661678 -153.5090745 709.33732829 -156.8125 708.63671875 C-157.68422852 708.45625 -158.55595703 708.27578125 -159.45410156 708.08984375 C-165.82455752 706.72220207 -171.90244361 705.02842638 -177.875 702.38671875 C-178.88820313 701.94392578 -178.88820313 701.94392578 -179.921875 701.4921875 C-187.23226925 698.0563022 -194.69727806 693.59736739 -200.875 688.38671875 C-200.875 687.72671875 -200.875 687.06671875 -200.875 686.38671875 C-202.525 685.72671875 -204.175 685.06671875 -205.875 684.38671875 C-205.875 683.72671875 -205.875 683.06671875 -205.875 682.38671875 C-206.535 682.38671875 -207.195 682.38671875 -207.875 682.38671875 C-207.875 681.72671875 -207.875 681.06671875 -207.875 680.38671875 C-209.195 680.05671875 -210.515 679.72671875 -211.875 679.38671875 C-211.875 678.72671875 -211.875 678.06671875 -211.875 677.38671875 C-212.514375 677.11859375 -213.15375 676.85046875 -213.8125 676.57421875 C-215.875 675.38671875 -215.875 675.38671875 -216.875 672.38671875 C-218.18283414 671.6713223 -219.52092439 671.01017802 -220.875 670.38671875 C-222.15687437 669.42791841 -223.4081293 668.42677918 -224.625 667.38671875 C-225.23859375 666.87109375 -225.8521875 666.35546875 -226.484375 665.82421875 C-227.875 664.38671875 -227.875 664.38671875 -227.875 662.38671875 C-228.535 662.38671875 -229.195 662.38671875 -229.875 662.38671875 C-229.875 661.72671875 -229.875 661.06671875 -229.875 660.38671875 C-230.45765625 660.10699219 -231.0403125 659.82726562 -231.640625 659.5390625 C-233.74267822 658.45496162 -235.65574984 657.25527103 -237.625 655.94921875 C-249.21156741 648.6211472 -263.23943322 647.34113025 -276.5 650.29296875 C-286.54932869 652.87264403 -296.21286076 656.64986575 -305.875 660.38671875 C-327.3215576 668.62263907 -349.2353621 669.46153302 -370.6875 660.57421875 C-375.97733542 657.99580768 -381.21117871 654.97619549 -385.875 651.38671875 C-386.37 649.90171875 -386.37 649.90171875 -386.875 648.38671875 C-388.87516466 647.17789779 -388.87516466 647.17789779 -390.875 646.38671875 C-390.875 645.72671875 -390.875 645.06671875 -390.875 644.38671875 C-391.4525 644.15984375 -392.03 643.93296875 -392.625 643.69921875 C-401.20462595 638.69443695 -405.84541419 625.21348731 -408.4375 616.19921875 C-415.25265322 589.79946734 -410.64304152 562.55092806 -404.140625 536.4375 C-402.95926998 531.27267349 -402.81008896 527.68606448 -404.3359375 522.55859375 C-404.62001465 521.5850293 -404.9040918 520.61146484 -405.19677734 519.60839844 C-405.53249756 518.50866699 -405.53249756 518.50866699 -405.875 517.38671875 C-406.60501221 517.33136963 -407.33502441 517.27602051 -408.0871582 517.21899414 C-411.45400307 516.96324061 -414.8207514 516.70623637 -418.1875 516.44921875 C-419.33541016 516.36220703 -420.48332031 516.27519531 -421.66601562 516.18554688 C-423.96494682 516.00970794 -426.26361716 515.83042468 -428.56201172 515.64770508 C-430.67226328 515.4814664 -432.78324511 515.32408875 -434.89501953 515.1784668 C-440.57794193 514.74794237 -445.71706718 513.86777711 -451.125 512.07421875 C-451.77984375 511.87376953 -452.4346875 511.67332031 -453.109375 511.46679688 C-457.75652127 509.97768155 -461.70553283 507.91972407 -465.875 505.38671875 C-465.875 504.72671875 -465.875 504.06671875 -465.875 503.38671875 C-466.45507812 503.28230469 -467.03515625 503.17789063 -467.6328125 503.0703125 C-474.61961081 500.94019106 -479.12589887 494.12998837 -482.49609375 488.05078125 C-482.95113281 487.17164063 -483.40617188 486.2925 -483.875 485.38671875 C-484.34035156 484.50757813 -484.80570313 483.6284375 -485.28515625 482.72265625 C-494.00596392 465.07764016 -492.42756261 443.30864408 -487.13671875 424.8046875 C-480.18928305 405.47698723 -466.82493719 388.96394935 -453.875 373.38671875 C-453.04959717 372.37424072 -453.04959717 372.37424072 -452.20751953 371.34130859 C-451.67626465 370.70016113 -451.14500977 370.05901367 -450.59765625 369.3984375 C-450.12207275 368.81924561 -449.64648926 368.24005371 -449.15649414 367.64331055 C-447.875 366.38671875 -447.875 366.38671875 -445.875 366.38671875 C-445.52308594 365.56880859 -445.52308594 365.56880859 -445.1640625 364.734375 C-443.52731745 361.75351508 -441.46765656 359.40233033 -439.25 356.82421875 C-423.01290272 337.61785107 -413.41503005 317.24388183 -405.875 293.38671875 C-405.65924316 292.70609375 -405.44348633 292.02546875 -405.22119141 291.32421875 C-402.6054459 282.96092068 -400.81384442 274.52616793 -399.31542969 265.90380859 C-398.81762697 263.05882741 -398.30400419 260.21692862 -397.7890625 257.375 C-395.89535805 246.89229551 -394.04106183 236.40370285 -392.25390625 225.90234375 C-392.1180864 225.10512405 -391.98226654 224.30790436 -391.84233093 223.48652649 C-391.17213687 219.54980134 -390.50506422 215.61258191 -389.8425293 211.67456055 C-389.59820755 210.23355051 -389.35382575 208.79255066 -389.109375 207.3515625 C-388.78791504 205.44298462 -388.78791504 205.44298462 -388.45996094 203.49584961 C-387.875 200.38671875 -387.875 200.38671875 -386.875 197.38671875 C-386.56768666 195.59059689 -386.26270215 193.79401182 -385.97509766 191.99462891 C-384.59946255 183.46645866 -382.59318593 175.2705727 -380.1875 166.98046875 C-379.07122878 163.1326162 -378.07199807 159.26432152 -377.09790039 155.37841797 C-371.34207282 132.5948359 -362.96269882 110.55658483 -350.875 90.38671875 C-349.90726503 88.64126964 -348.93955841 86.89579804 -347.97705078 85.14746094 C-343.52294705 77.12072528 -338.36241083 69.73513066 -332.875 62.38671875 C-332.41706055 61.76716309 -331.95912109 61.14760742 -331.48730469 60.50927734 C-330.12514294 58.67012167 -328.75258195 56.83934439 -327.375 55.01171875 C-326.74295654 54.16275024 -326.74295654 54.16275024 -326.09814453 53.29663086 C-325.07201262 51.95500858 -323.97910858 50.66493676 -322.875 49.38671875 C-322.215 49.38671875 -321.555 49.38671875 -320.875 49.38671875 C-320.77622559 48.80422363 -320.67745117 48.22172852 -320.57568359 47.62158203 C-319.73601785 44.94342864 -318.59010682 43.6603015 -316.6640625 41.62890625 C-316.00245117 40.92620605 -315.34083984 40.22350586 -314.65917969 39.49951172 C-313.94665039 38.76104004 -313.23412109 38.02256836 -312.5 37.26171875 C-311.7668457 36.49617676 -311.03369141 35.73063477 -310.27832031 34.94189453 C-292.16520627 16.16455342 -271.72200271 1.9008202 -248.875 -10.61328125 C-248.18180664 -10.99452148 -247.48861328 -11.37576172 -246.77441406 -11.76855469 C-170.61150754 -53.12342705 -71.48851208 -49.59515526 0 0 Z M-297.875 58.38671875 C-300.99472443 61.96537785 -303.95914779 65.64076807 -306.875 69.38671875 C-307.58011719 70.27488281 -308.28523437 71.16304688 -309.01171875 72.078125 C-335.07760764 105.72511623 -351.32278404 144.92786575 -359.8125 186.38671875 C-360.15725121 188.04745644 -360.5020603 189.70818212 -360.84692383 191.36889648 C-364.93570313 211.18281385 -368.46910346 231.08920383 -371.86401367 251.03222656 C-378.75299753 291.4299684 -388.37883762 331.33457447 -413.875 364.38671875 C-414.52984375 365.24136719 -415.1846875 366.09601563 -415.859375 366.9765625 C-422.96109888 376.02979315 -430.50098181 384.81074565 -438.375 393.19921875 C-454.01493009 410.54222653 -468.07687309 432.8298584 -467.2578125 456.96484375 C-466.24444541 466.02310467 -463.66269956 474.99314368 -456.875 481.38671875 C-446.61166272 489.28714358 -435.95306233 490.55110114 -423.43017578 491.05517578 C-410.13830477 491.5906362 -396.0617109 492.28600453 -386.375 502.69921875 C-378.34445308 513.40661464 -377.5237317 526.46029015 -378.875 539.38671875 C-380.05004101 546.9676209 -381.68092603 554.47658855 -383.296875 561.97338867 C-384.90139929 569.42204846 -386.44023666 576.7585144 -386.875 584.38671875 C-386.94203125 585.485 -387.0090625 586.58328125 -387.078125 587.71484375 C-387.32451931 603.07342211 -383.65096399 618.22111646 -372.84375 629.64453125 C-369.18519987 632.88205775 -365.2275998 635.20071766 -360.875 637.38671875 C-360.10027344 637.80179688 -359.32554687 638.216875 -358.52734375 638.64453125 C-343.76597316 645.33510492 -326.41945981 641.71841007 -311.875 636.38671875 C-308.38243276 635.12378619 -304.88919576 633.86277765 -301.39477539 632.60498047 C-298.99085707 631.73396575 -296.59126197 630.85088827 -294.19702148 629.95361328 C-273.44151666 622.31019424 -254.33087173 620.77442047 -233.7421875 629.94921875 C-220.89855351 636.38853388 -210.42652606 645.64982379 -200.42578125 655.8203125 C-189.39838286 666.91526003 -177.09017338 675.00686465 -162.875 681.38671875 C-162.03582031 681.77214844 -161.19664062 682.15757812 -160.33203125 682.5546875 C-147.21941092 687.49802932 -129.84153887 685.25502645 -117.34375 679.86328125 C-104.51923076 673.78727631 -94.63324143 664.30479457 -84.84057617 654.22192383 C-70.82914161 639.81580097 -53.85774259 628.29614625 -33.0625 627.94921875 C-15.79569998 628.04610584 -0.62505948 634.91265954 14.95703125 641.71875 C33.03386457 649.61020171 48.46854228 654.79192331 68.125 648.38671875 C81.4382496 642.99802248 89.86369688 632.23972129 95.375 619.38671875 C102.95460277 599.01653632 97.75429368 578.08045623 93.5300293 557.48608398 C90.87928113 544.21323003 89.05398253 526.98079396 95.578125 514.62890625 C100.64280189 507.28768268 107.20037654 502.08044291 116.125 500.38671875 C122.20251271 500.10326823 128.26414884 500.23132466 134.3125 500.88671875 C152.2692718 502.6666903 169.15977303 502.18969524 184.046875 490.93359375 C191.72658267 484.20535428 196.61633202 473.23288937 197.36328125 463.1796875 C198.0893021 427.91035895 174.58857051 401.22629726 151.9375 376.76171875 C133.12928335 356.10301627 121.29424346 332.90356341 113.125 306.38671875 C112.79653076 305.34040283 112.79653076 305.34040283 112.46142578 304.27294922 C105.61397792 282.21701383 102.54194767 259.04447504 99.23046875 236.23828125 C89.82423969 171.52991235 76.08684026 105.32584204 28.62792969 56.92041016 C26.93885513 55.1967639 25.2715064 53.45311702 23.6015625 51.7109375 C16.11127738 43.98063543 8.36119814 36.9730025 -0.28759766 30.56396484 C-1.7582196 29.47332519 -3.21380365 28.36248714 -4.66796875 27.25 C-83.36292031 -31.91651454 -199.51728207 -25.19726721 -297.875 58.38671875 Z " fill="#0B0F0C" transform="translate(643.875,156.61328125)"/>
<path d="M0 0 C10.51887397 3.39167259 16.56901626 11.23015346 21.890625 20.54296875 C23.66697772 24.47721474 23.79581851 26.73151892 23 31 C20.9375 34 20.9375 34 18 36 C13.76824264 36.68010386 11.79597022 36.48450361 8.125 34.25 C6.03625819 32.03839103 5.31848149 30.97249386 5 28 C4.01 28 3.02 28 2 28 C1.87995605 28.76739502 1.75991211 29.53479004 1.63623047 30.32543945 C-7.6398329 89.08402147 -22.96325224 154.98771298 -73.10327148 193.07421875 C-88.92861213 204.53917058 -107.50648526 213.32918036 -127 216 C-127.74507812 216.10957031 -128.49015625 216.21914063 -129.2578125 216.33203125 C-156.87478681 219.74997362 -185.12398217 213.09594479 -207.41796875 196.08984375 C-246.8532562 164.17172153 -265.76297817 115.25041953 -275.23828125 66.70703125 C-275.4494458 65.64226562 -275.66061035 64.5775 -275.87817383 63.48046875 C-276.27914499 61.43767257 -276.66673204 59.39218151 -277.0378418 57.34375 C-278.51318706 49.76551628 -280.63715572 42.22319128 -286.3515625 36.74609375 C-287.10179687 36.31425781 -287.85203125 35.88242187 -288.625 35.4375 C-289.38039063 34.98246094 -290.13578125 34.52742188 -290.9140625 34.05859375 C-293.10013131 32.88477107 -293.10013131 32.88477107 -296 32 C-296.0825 32.598125 -296.165 33.19625 -296.25 33.8125 C-297.25036997 36.73024575 -298.29808749 37.53950675 -301 39 C-303.9375 39.5 -303.9375 39.5 -307 39 C-310.54142587 36.45941187 -311.82787348 35.01363396 -312.5625 30.6875 C-310.88740734 19.70633704 -302.58351096 11.49447766 -294 5 C-290.17427719 2.82864381 -287.11073775 2.75526201 -282.87109375 3.4765625 C-279.8028357 4.33490609 -278.64411723 5.25980461 -277 8 C-276.39715618 11.12330512 -276.12842472 13.92512571 -277 17 C-279.53515625 19.28125 -279.53515625 19.28125 -282 21 C-237.67432298 40.92086838 -237.67432298 40.92086838 -191 54 C-190.18595703 54.16516113 -189.37191406 54.33032227 -188.53320312 54.50048828 C-124.72609943 66.77206133 -65.95558928 46.98052775 -11 16 C-11.48605713 15.54874756 -11.97211426 15.09749512 -12.47290039 14.63256836 C-14.43493997 12.53502101 -14.43271959 11.39728487 -14.4375 8.5625 C-14.30595417 5.57105027 -14.06282219 4.11707771 -12.625 1.4375 C-8.4192093 -0.8656711 -4.67647775 -0.75816641 0 0 Z " fill="#0A0D0A" transform="translate(657,415)"/>
<path d="M0 0 C11.18299751 9.12792906 19.71269293 22.06901086 23.55078125 36.08203125 C23.55078125 37.40203125 23.55078125 38.72203125 23.55078125 40.08203125 C24.21078125 40.08203125 24.87078125 40.08203125 25.55078125 40.08203125 C25.64101563 39.24285156 25.73125 38.40367187 25.82421875 37.5390625 C26.66161637 33.55467057 28.23374282 30.30326366 30.17578125 26.76953125 C30.53478516 26.10945068 30.89378906 25.44937012 31.26367188 24.76928711 C34.22044741 19.45087185 37.49371664 14.63276523 41.55078125 10.08203125 C42.1540625 9.39753906 42.75734375 8.71304687 43.37890625 8.0078125 C53.14777123 -2.41628123 65.2155847 -8.85151303 79.55908203 -9.38842773 C95.8966799 -9.58212256 107.49025671 -4.07999654 119.42578125 6.90234375 C134.42182018 22.28431015 140.23919055 42.82734617 140.02148438 63.77612305 C139.2505949 87.37231165 131.25404493 109.432897 114.02734375 125.94921875 C100.52018006 137.58157108 86.2919615 142.3824319 68.55078125 141.08203125 C53.71115816 138.29224933 41.9717831 129.13440689 33.3203125 116.9375 C29.09845608 110.26015486 25.58882418 103.37041308 22.55078125 96.08203125 C22.13119141 97.18998047 22.13119141 97.18998047 21.703125 98.3203125 C15.45292944 114.13672376 5.7378952 129.32033073 -10.390625 136.3671875 C-26.26361135 142.26407591 -41.87208338 141.48396015 -57.44140625 134.796875 C-73.04740602 127.03710503 -81.80431276 112.07235429 -87.44921875 96.08203125 C-94.64879363 73.88083172 -93.31820432 48.2336679 -83.44921875 27.08203125 C-74.52567066 9.64055088 -61.93813582 -1.58991731 -43.15234375 -7.66015625 C-28.62054254 -11.53176752 -12.26448369 -8.6305626 0 0 Z " fill="#0B0E0B" transform="translate(487.44921875,278.91796875)"/>
<path d="M0 0 C9.58662056 5.98234849 15.97225964 12.89857193 21.328125 22.8203125 C21.83472656 23.75798462 21.83472656 23.75798462 22.3515625 24.71459961 C30.97372333 41.33276739 29.02244218 60.92759489 23.828125 78.3203125 C18.73686522 94.28939075 9.51827772 105.65091584 -5.125 113.8828125 C-13.5253771 117.9223381 -22.18025033 118.90466314 -31.109375 115.8203125 C-37.03570487 113.13345555 -41.45899298 108.84604705 -45.984375 104.2578125 C-46.850625 103.40703125 -46.850625 103.40703125 -47.734375 102.5390625 C-59.62349279 89.90687485 -61.75449156 73.30613836 -61.3359375 56.75 C-60.43522457 38.02942695 -52.70958204 20.07504993 -39.16015625 7.078125 C-28.25890495 -2.04213192 -13.36928848 -7.08077131 0 0 Z " fill="#F6F2E3" transform="translate(583.984375,287.7421875)"/>
<path d="M0 0 C11.00159553 8.37289571 17.33418725 24.54299887 19.953125 37.71875 C20.3528666 42.20768505 20.37390415 46.65209003 20.328125 51.15625 C20.33972656 52.29384766 20.35132813 53.43144531 20.36328125 54.60351562 C20.32588864 65.52838871 18.25062913 75.29249066 13.140625 84.96875 C12.7887915 85.6498584 12.43695801 86.3309668 12.07446289 87.03271484 C5.88346008 98.77325324 -1.16382234 106.61079832 -14.046875 110.71875 C-17.046875 111.46875 -17.046875 111.46875 -20.046875 111.71875 C-20.76101563 111.78191406 -21.47515625 111.84507812 -22.2109375 111.91015625 C-33.43622186 112.46251151 -43.7606086 108.21379304 -52.046875 100.71875 C-63.72136919 87.56214229 -67.6311603 70.03902994 -67.484375 52.90625 C-67.47752686 51.67664551 -67.47067871 50.44704102 -67.46362305 49.18017578 C-67.30363052 40.11872642 -66.4277355 32.204265 -63.046875 23.71875 C-62.69625 22.80738281 -62.345625 21.89601563 -61.984375 20.95703125 C-57.10909439 9.90300959 -48.50975931 2.37436314 -38.046875 -3.28125 C-37.41523438 -3.6421875 -36.78359375 -4.003125 -36.1328125 -4.375 C-24.54413019 -9.88855811 -10.27954413 -6.43452381 0 0 Z " fill="#F6F3E4" transform="translate(479.046875,292.28125)"/>
<path d="M0 0 C2.50575799 1.58821443 4.96891806 3.2292787 7.4375 4.875 C6.89416515 9.81029156 5.29482515 13.69236584 2.9375 18 C2.58437744 18.65234619 2.23125488 19.30469238 1.86743164 19.97680664 C-1.70752594 26.40953561 -5.92723116 32.1550613 -10.5625 37.875 C-11.11292969 38.59042969 -11.66335938 39.30585937 -12.23046875 40.04296875 C-24.54897414 55.28141616 -43.01352002 64.02141295 -61.5625 68.875 C-62.23144287 69.06191406 -62.90038574 69.24882813 -63.58959961 69.44140625 C-70.17745402 71.13010067 -76.60274584 71.17216602 -83.375 71.125 C-85.02338867 71.13660156 -85.02338867 71.13660156 -86.70507812 71.1484375 C-97.02297099 71.12411719 -107.02779685 70.19075229 -116.5 65.875 C-117.17111816 65.57303711 -117.84223633 65.27107422 -118.53369141 64.95996094 C-130.3341291 59.38218131 -139.26872042 50.8183711 -147.5625 40.875 C-148.31402344 39.98425781 -149.06554687 39.09351563 -149.83984375 38.17578125 C-151.5625 35.875 -151.5625 35.875 -151.5625 33.875 C-152.2225 33.545 -152.8825 33.215 -153.5625 32.875 C-146.20052218 18.50937071 -135.85607519 10.4237934 -120.5625 4.875 C-115.41215291 3.70346182 -110.31727456 3.69158614 -105.0625 3.6875 C-103.81919922 3.66913086 -103.81919922 3.66913086 -102.55078125 3.65039062 C-97.81318392 3.6390927 -94.01591582 4.0459185 -89.5625 5.875 C-91.09987663 9.9849717 -93.06487331 13.75419829 -95.125 17.625 C-97.94545343 23.12885157 -99.76407473 27.62618323 -99.5625 33.875 C-98.31225467 36.41456606 -98.31225467 36.41456606 -96.5625 37.875 C-93.18942495 37.96296098 -93.18942495 37.96296098 -89.5625 36.875 C-87.85396998 34.32615848 -86.76891738 32.28506677 -85.625 29.5 C-84.95114924 28.02926027 -84.27008816 26.56180375 -83.58203125 25.09765625 C-83.24510254 24.37594238 -82.90817383 23.65422852 -82.56103516 22.91064453 C-75.02133114 7.53997165 -61.01280676 -0.64104051 -45.40625 -6.26171875 C-29.87715666 -9.74945211 -13.68323622 -7.96399483 0 0 Z " fill="#CA4422" transform="translate(597.5625,544.125)"/>
<path d="M0 0 C1.77682905 1.1595116 3.62439979 2.20964515 5.484375 3.23046875 C9.14860131 5.30501008 12.2220107 7.79999924 15.375 10.57421875 C16.51865317 11.56481674 17.66319712 12.55438718 18.80859375 13.54296875 C19.37046387 14.02894531 19.93233398 14.51492187 20.51123047 15.015625 C22.76893703 16.93382168 25.10660958 18.7460694 27.4375 20.57421875 C38.61419682 29.68903592 49.91194357 40.47778693 58.125 52.38671875 C58.125 53.04671875 58.125 53.70671875 58.125 54.38671875 C58.785 54.38671875 59.445 54.38671875 60.125 54.38671875 C61.6328125 56.28515625 61.6328125 56.28515625 63.25 58.76171875 C64.05824219 59.97988281 64.05824219 59.97988281 64.8828125 61.22265625 C66.125 63.38671875 66.125 63.38671875 66.125 65.38671875 C66.785 65.38671875 67.445 65.38671875 68.125 65.38671875 C69.74609375 67.6171875 69.74609375 67.6171875 71.5625 70.57421875 C72.15933594 71.53714844 72.75617187 72.50007813 73.37109375 73.4921875 C73.94988281 74.44738281 74.52867187 75.40257812 75.125 76.38671875 C75.59292969 77.15371094 76.06085937 77.92070312 76.54296875 78.7109375 C82.61453127 88.98012349 88.50611894 99.37503855 93.125 110.38671875 C93.54265625 111.35867188 93.9603125 112.330625 94.390625 113.33203125 C98.98533859 124.15451929 102.7824324 135.11847539 106.125 146.38671875 C106.47763916 147.54421631 106.47763916 147.54421631 106.83740234 148.72509766 C110.14768371 159.60714783 112.8631577 170.31294481 114.54296875 181.56640625 C115.09405449 185.18359992 115.81494586 188.69452819 116.66015625 192.25 C117.45512011 195.90416163 117.99477715 199.6016075 118.5625 203.296875 C118.98728125 205.63022202 119.52898582 207.94269537 120.125 210.23828125 C121.18364314 214.36944005 121.69585434 218.46274338 122.125 222.69921875 C123.02780098 230.87458321 124.38512716 238.85462573 126.0703125 246.90625 C127.73811697 254.94772976 129.29690688 262.89847257 130.125 271.07421875 C132.73548667 296.28524532 141.52798203 323.17001797 156.83984375 343.49609375 C158.125 345.38671875 158.125 345.38671875 158.125 347.38671875 C158.785 347.38671875 159.445 347.38671875 160.125 347.38671875 C161.35106617 348.96738249 162.50478665 350.60435392 163.625 352.26171875 C167.22542327 357.35579588 171.18500037 361.57786526 175.6640625 365.8984375 C178.84261583 369.11230809 181.59118513 372.57445848 184.3359375 376.16015625 C186.07259329 378.40534218 186.07259329 378.40534218 188.05859375 380.3125 C198.52955366 390.82304766 207.13278812 404.86874314 213.125 418.38671875 C213.44855469 419.1034375 213.77210938 419.82015625 214.10546875 420.55859375 C222.74429901 440.81516126 225.5013702 463.98323614 217.5625 484.88671875 C210.76411276 501.51165187 198.69639221 513.88264436 182.24072266 521.2277832 C177.417276 523.14421541 172.61604904 524.25842238 167.5 525.07421875 C166.71077148 525.20086914 165.92154297 525.32751953 165.10839844 525.45800781 C156.17410128 526.79941787 147.50673071 526.59865314 138.5078125 526.046875 C137.51749023 525.99047852 136.52716797 525.93408203 135.50683594 525.87597656 C133.53251627 525.75991555 131.55904008 525.62824457 129.58691406 525.47949219 C128.6790918 525.42438477 127.77126953 525.36927734 126.8359375 525.3125 C126.02431152 525.25489502 125.21268555 525.19729004 124.37646484 525.13793945 C121.48541374 525.45739088 120.21450729 526.39790713 118.125 528.38671875 C114.7856811 538.40467545 117.21122236 551.82740022 120.09375 561.70703125 C127.40633565 587.79966642 126.88063938 616.12783284 113.63671875 640.078125 C102.80450137 658.25246586 87.36701677 669.62696372 67.125 675.38671875 C63.09201245 676.11998921 59.2186316 676.35942787 55.125 676.38671875 C54.05507813 676.42410156 52.98515625 676.46148438 51.8828125 676.5 C40.83930717 676.74685482 31.17219453 674.77867326 20.9375 670.69921875 C20.0398291 670.34907715 19.1421582 669.99893555 18.21728516 669.63818359 C-3.06361172 661.2609776 -3.06361172 661.2609776 -8.875 657.38671875 C-11.90938034 656.47310151 -15.02164886 655.89745836 -18.125 655.26171875 C-19.37603516 654.98908203 -19.37603516 654.98908203 -20.65234375 654.7109375 C-31.89698615 652.36315502 -42.86274844 653.62614343 -53 659.44921875 C-61.87792861 665.64487957 -69.56501788 673.90149906 -77.04199219 681.67797852 C-78.28349554 682.95054058 -79.5752242 684.1737358 -80.875 685.38671875 C-81.535 685.38671875 -82.195 685.38671875 -82.875 685.38671875 C-83.205 686.37671875 -83.535 687.36671875 -83.875 688.38671875 C-101.45727059 702.85633857 -123.98774089 711.5531112 -146.875 710.38671875 C-150.22663385 709.9661678 -153.5090745 709.33732829 -156.8125 708.63671875 C-157.68422852 708.45625 -158.55595703 708.27578125 -159.45410156 708.08984375 C-165.82455752 706.72220207 -171.90244361 705.02842638 -177.875 702.38671875 C-178.88820313 701.94392578 -178.88820313 701.94392578 -179.921875 701.4921875 C-187.23226925 698.0563022 -194.69727806 693.59736739 -200.875 688.38671875 C-200.875 687.72671875 -200.875 687.06671875 -200.875 686.38671875 C-197.4263304 688.00430902 -194.32217233 690.00904017 -191.125 692.07421875 C-170.29889941 705.07187826 -146.34214316 710.3790515 -122.0625 704.88671875 C-100.30415293 699.29429475 -85.38206448 686.456984 -70.15307617 670.55566406 C-60.32288221 660.40695871 -49.06844281 651.38086902 -34.453125 651.10351562 C-33.64359375 651.09384766 -32.8340625 651.08417969 -32 651.07421875 C-31.22914063 651.04521484 -30.45828125 651.01621094 -29.6640625 650.98632812 C-16.64196155 650.84891959 -4.8564852 656.43885699 6.6875 661.88671875 C27.74363142 671.79449811 49.66936928 677.92162229 72.640625 670.69921875 C92.36985648 663.26757999 105.6544952 650.75090589 114.80859375 631.64453125 C124.91720291 606.62797327 121.59726503 580.61825412 115.375 555.07421875 C114.1180513 549.46629379 113.80852435 544.0493088 113.75 538.32421875 C113.73614258 537.51364014 113.72228516 536.70306152 113.70800781 535.86791992 C113.74494701 531.23156401 114.10795559 528.13323634 117.125 524.38671875 C120.52428224 522.12053059 121.4182238 522.18969599 125.359375 522.41015625 C126.9215979 522.48810425 126.9215979 522.48810425 128.51538086 522.56762695 C130.17839233 522.66370239 130.17839233 522.66370239 131.875 522.76171875 C134.1626891 522.8687233 136.45045021 522.97419942 138.73828125 523.078125 C141.65171811 523.21783069 144.56506659 523.35801911 147.47802734 523.50732422 C166.33151642 524.39460132 185.08382539 519.36509422 199.6875 507.07421875 C211.68980523 495.31357067 218.23758969 478.95577089 218.50585938 462.28222656 C218.43782481 428.66181141 203.03939193 400.21760237 180.4609375 375.90234375 C177.89415134 373.1381125 175.41999017 370.30615832 172.953125 367.453125 C171.61330161 365.93866651 170.24432687 364.44986475 168.859375 362.9765625 C161.92150077 355.56961816 155.90996937 347.71455839 150.125 339.38671875 C149.54878906 338.56945312 148.97257813 337.7521875 148.37890625 336.91015625 C129.90674287 308.57616038 126.16512414 271.72100478 121.30303955 239.14178467 C109.91029071 162.93564587 92.96739066 91.76151417 38.125 34.38671875 C37.48949219 33.70996094 36.85398437 33.03320312 36.19921875 32.3359375 C31.25300208 27.20084382 25.70172784 22.81315547 20.125 18.38671875 C19.15820312 17.60296875 18.19140625 16.81921875 17.1953125 16.01171875 C-10.95387581 -6.33572846 -43.25229461 -20.5504181 -77.875 -29.61328125 C-79.09574219 -29.93941406 -80.31648438 -30.26554687 -81.57421875 -30.6015625 C-142.35698721 -45.1804553 -208.62961623 -31.83190045 -261.57421875 0.20703125 C-271.11246723 6.07467764 -280.24117266 12.24639577 -288.875 19.38671875 C-289.75478516 20.1142334 -289.75478516 20.1142334 -290.65234375 20.85644531 C-300.5286435 29.07799505 -309.5287106 37.48684329 -317.58984375 47.5390625 C-319.08385586 49.40083144 -320.5962838 51.24800911 -322.12890625 53.078125 C-332.3746822 65.31959991 -340.7964414 78.65627627 -348.875 92.38671875 C-349.23980469 93.00208496 -349.60460937 93.61745117 -349.98046875 94.25146484 C-357.04525666 106.31371049 -361.94924633 119.340742 -366.875 132.38671875 C-367.14441406 133.09795898 -367.41382813 133.80919922 -367.69140625 134.54199219 C-379.15209493 165.3384999 -384.54611672 198.73913589 -389.79428101 231.06033325 C-398.73484589 286.12122661 -411.75804374 332.13315724 -450.32421875 373.6015625 C-473.51843519 398.92694737 -489.17738496 426.56934724 -488.04980469 461.55224609 C-487.36108931 472.71982368 -483.14297501 482.22797034 -476.875 491.38671875 C-476.44832031 492.04027344 -476.02164063 492.69382812 -475.58203125 493.3671875 C-467.89171507 503.70770495 -455.00318205 508.78450344 -442.875 511.38671875 C-441.70493408 511.64582031 -441.70493408 511.64582031 -440.51123047 511.91015625 C-437.85311678 512.39067467 -435.33484642 512.57576699 -432.63671875 512.66796875 C-431.15848633 512.72404297 -431.15848633 512.72404297 -429.65039062 512.78125 C-428.12188477 512.83345703 -428.12188477 512.83345703 -426.5625 512.88671875 C-408.05682332 513.52607034 -408.05682332 513.52607034 -405.03515625 515.7265625 C-399.64996278 523.56479783 -400.07377817 530.76571548 -401.40917969 540.13427734 C-402.1349936 543.96106865 -402.92734327 547.76710648 -403.75 551.57421875 C-404.31307537 554.3025162 -404.8620768 557.03349969 -405.40625 559.765625 C-405.53857025 560.4281427 -405.6708905 561.0906604 -405.80722046 561.77325439 C-407.41345624 569.94184819 -408.34689219 578.08552404 -408.875 586.38671875 C-408.9575 587.49789062 -409.04 588.6090625 -409.125 589.75390625 C-409.87412085 608.52874755 -403.44089338 628.28214455 -390.875 642.38671875 C-390.3284375 643.03640625 -389.781875 643.68609375 -389.21875 644.35546875 C-377.83552515 656.89630969 -360.81289033 662.7834222 -344.21484375 663.6953125 C-324.92353227 664.32584144 -308.89027937 658.66842617 -291.0703125 651.9296875 C-275.58384292 646.13701208 -258.97619102 643.40874234 -243.23046875 649.70703125 C-234.9344638 653.8598626 -228.11798438 659.80344554 -221.75 666.4765625 C-219.79656925 668.46662007 -217.74804397 670.26728978 -215.625 672.07421875 C-212.66447356 674.61514302 -210.18055301 677.21658337 -207.875 680.38671875 C-209.195 680.05671875 -210.515 679.72671875 -211.875 679.38671875 C-211.875 678.72671875 -211.875 678.06671875 -211.875 677.38671875 C-212.514375 677.11859375 -213.15375 676.85046875 -213.8125 676.57421875 C-215.875 675.38671875 -215.875 675.38671875 -216.875 672.38671875 C-218.18283414 671.6713223 -219.52092439 671.01017802 -220.875 670.38671875 C-222.15687437 669.42791841 -223.4081293 668.42677918 -224.625 667.38671875 C-225.23859375 666.87109375 -225.8521875 666.35546875 -226.484375 665.82421875 C-227.875 664.38671875 -227.875 664.38671875 -227.875 662.38671875 C-228.535 662.38671875 -229.195 662.38671875 -229.875 662.38671875 C-229.875 661.72671875 -229.875 661.06671875 -229.875 660.38671875 C-230.45765625 660.10699219 -231.0403125 659.82726562 -231.640625 659.5390625 C-233.74267822 658.45496162 -235.65574984 657.25527103 -237.625 655.94921875 C-249.21156741 648.6211472 -263.23943322 647.34113025 -276.5 650.29296875 C-286.54932869 652.87264403 -296.21286076 656.64986575 -305.875 660.38671875 C-327.3215576 668.62263907 -349.2353621 669.46153302 -370.6875 660.57421875 C-375.97733542 657.99580768 -381.21117871 654.97619549 -385.875 651.38671875 C-386.37 649.90171875 -386.37 649.90171875 -386.875 648.38671875 C-388.87516466 647.17789779 -388.87516466 647.17789779 -390.875 646.38671875 C-390.875 645.72671875 -390.875 645.06671875 -390.875 644.38671875 C-391.4525 644.15984375 -392.03 643.93296875 -392.625 643.69921875 C-401.20462595 638.69443695 -405.84541419 625.21348731 -408.4375 616.19921875 C-415.25265322 589.79946734 -410.64304152 562.55092806 -404.140625 536.4375 C-402.95926998 531.27267349 -402.81008896 527.68606448 -404.3359375 522.55859375 C-404.62001465 521.5850293 -404.9040918 520.61146484 -405.19677734 519.60839844 C-405.53249756 518.50866699 -405.53249756 518.50866699 -405.875 517.38671875 C-406.60501221 517.33136963 -407.33502441 517.27602051 -408.0871582 517.21899414 C-411.45400307 516.96324061 -414.8207514 516.70623637 -418.1875 516.44921875 C-419.33541016 516.36220703 -420.48332031 516.27519531 -421.66601562 516.18554688 C-423.96494682 516.00970794 -426.26361716 515.83042468 -428.56201172 515.64770508 C-430.67226328 515.4814664 -432.78324511 515.32408875 -434.89501953 515.1784668 C-440.57794193 514.74794237 -445.71706718 513.86777711 -451.125 512.07421875 C-451.77984375 511.87376953 -452.4346875 511.67332031 -453.109375 511.46679688 C-457.75652127 509.97768155 -461.70553283 507.91972407 -465.875 505.38671875 C-465.875 504.72671875 -465.875 504.06671875 -465.875 503.38671875 C-466.45507812 503.28230469 -467.03515625 503.17789063 -467.6328125 503.0703125 C-474.61961081 500.94019106 -479.12589887 494.12998837 -482.49609375 488.05078125 C-482.95113281 487.17164063 -483.40617188 486.2925 -483.875 485.38671875 C-484.34035156 484.50757813 -484.80570313 483.6284375 -485.28515625 482.72265625 C-494.00596392 465.07764016 -492.42756261 443.30864408 -487.13671875 424.8046875 C-480.18928305 405.47698723 -466.82493719 388.96394935 -453.875 373.38671875 C-453.04959717 372.37424072 -453.04959717 372.37424072 -452.20751953 371.34130859 C-451.67626465 370.70016113 -451.14500977 370.05901367 -450.59765625 369.3984375 C-450.12207275 368.81924561 -449.64648926 368.24005371 -449.15649414 367.64331055 C-447.875 366.38671875 -447.875 366.38671875 -445.875 366.38671875 C-445.52308594 365.56880859 -445.52308594 365.56880859 -445.1640625 364.734375 C-443.52731745 361.75351508 -441.46765656 359.40233033 -439.25 356.82421875 C-423.01290272 337.61785107 -413.41503005 317.24388183 -405.875 293.38671875 C-405.65924316 292.70609375 -405.44348633 292.02546875 -405.22119141 291.32421875 C-402.6054459 282.96092068 -400.81384442 274.52616793 -399.31542969 265.90380859 C-398.81762697 263.05882741 -398.30400419 260.21692862 -397.7890625 257.375 C-395.89535805 246.89229551 -394.04106183 236.40370285 -392.25390625 225.90234375 C-392.1180864 225.10512405 -391.98226654 224.30790436 -391.84233093 223.48652649 C-391.17213687 219.54980134 -390.50506422 215.61258191 -389.8425293 211.67456055 C-389.59820755 210.23355051 -389.35382575 208.79255066 -389.109375 207.3515625 C-388.78791504 205.44298462 -388.78791504 205.44298462 -388.45996094 203.49584961 C-387.875 200.38671875 -387.875 200.38671875 -386.875 197.38671875 C-386.56768666 195.59059689 -386.26270215 193.79401182 -385.97509766 191.99462891 C-384.59946255 183.46645866 -382.59318593 175.2705727 -380.1875 166.98046875 C-379.07122878 163.1326162 -378.07199807 159.26432152 -377.09790039 155.37841797 C-371.34207282 132.5948359 -362.96269882 110.55658483 -350.875 90.38671875 C-349.90726503 88.64126964 -348.93955841 86.89579804 -347.97705078 85.14746094 C-343.52294705 77.12072528 -338.36241083 69.73513066 -332.875 62.38671875 C-332.41706055 61.76716309 -331.95912109 61.14760742 -331.48730469 60.50927734 C-330.12514294 58.67012167 -328.75258195 56.83934439 -327.375 55.01171875 C-326.74295654 54.16275024 -326.74295654 54.16275024 -326.09814453 53.29663086 C-325.07201262 51.95500858 -323.97910858 50.66493676 -322.875 49.38671875 C-322.215 49.38671875 -321.555 49.38671875 -320.875 49.38671875 C-320.77622559 48.80422363 -320.67745117 48.22172852 -320.57568359 47.62158203 C-319.73601785 44.94342864 -318.59010682 43.6603015 -316.6640625 41.62890625 C-316.00245117 40.92620605 -315.34083984 40.22350586 -314.65917969 39.49951172 C-313.94665039 38.76104004 -313.23412109 38.02256836 -312.5 37.26171875 C-311.7668457 36.49617676 -311.03369141 35.73063477 -310.27832031 34.94189453 C-292.16520627 16.16455342 -271.72200271 1.9008202 -248.875 -10.61328125 C-248.18180664 -10.99452148 -247.48861328 -11.37576172 -246.77441406 -11.76855469 C-170.61150754 -53.12342705 -71.48851208 -49.59515526 0 0 Z " fill="#F1F0E8" transform="translate(643.875,156.61328125)"/>
<path d="M0 0 C4.00583309 2.90846679 6.81872322 6.72157131 8.75390625 11.2734375 C9.16668237 14.42888159 9.08694633 17.59353939 9.06640625 20.7734375 C9.05794678 22.1188562 9.05794678 22.1188562 9.04931641 23.49145508 C8.85458458 34.18338917 7.3076094 44.17161984 -0.24609375 52.2734375 C-4.97059187 56.02255536 -9.91223215 56.93467366 -15.859375 56.65234375 C-22.03418514 55.67205474 -26.06605276 52.02953793 -29.89453125 47.26953125 C-35.00490103 39.72213542 -37.26511721 31.33297482 -36.24609375 22.2734375 C-33.41199926 11.68596532 -28.45254365 3.55835366 -18.93359375 -2.1015625 C-12.18955531 -3.66994353 -6.08111983 -3.46439554 0 0 Z " fill="#0A0E0B" transform="translate(583.24609375,324.7265625)"/>
<path d="M0 0 C5.63728812 3.14665195 9.89706208 7.64226384 12.109375 13.71875 C14.7908275 25.9623633 13.75910915 38.85533981 7.6171875 49.8671875 C4.33064667 54.77005989 0.59096083 57.73329349 -5.0625 59.5 C-11.10497817 60.37890592 -15.9820998 58.70773064 -21.0625 55.5 C-26.47584512 50.672159 -29.66918926 45.90160988 -30.328125 38.52734375 C-30.26302124 25.65307527 -29.77020035 12.92408043 -20.7265625 3.01171875 C-14.82233092 -2.35198459 -7.10576459 -3.08648076 0 0 Z " fill="#0A0E0B" transform="translate(475.0625,320.5)"/>
<path d="M0 0 C2.5964662 2.36042382 2.92100657 3.46961555 3.4375 6.9375 C2.89613959 10.72702289 1.68326641 12.31673359 -1 15 C-5.2745989 16.4248663 -9.69424894 16.48000765 -14.1015625 15.5625 C-20.44626754 14.27048734 -24.58713112 16.05731209 -30.19921875 19.109375 C-33.62678606 21.42310244 -36.00366656 24.01064484 -38.55859375 27.23046875 C-41.51398802 30.8586357 -43.97099604 31.89168379 -48.5625 32.375 C-53.71446384 31.81296758 -53.71446384 31.81296758 -56 29 C-57.2282829 24.31717143 -57.64611265 22.26638079 -55.4375 17.9375 C-54.633125 16.968125 -53.82875 15.99875 -53 15 C-52.58621094 14.44570312 -52.17242187 13.89140625 -51.74609375 13.3203125 C-40.54403825 -1.04129712 -16.62825255 -11.24054368 0 0 Z " fill="#0C0F0B" transform="translate(464,220)"/>
<path d="M0 0 C7.12144734 5.40207669 15.82342848 12.04716611 17.3125 21.3125 C16.75 24.8125 16.75 24.8125 14.1875 27.8125 C10.75 29.8125 10.75 29.8125 7.1875 29.875 C1.9546677 28.25757911 -0.73104722 25.48577149 -4.0625 21.3125 C-7.91012366 16.66744139 -12.6305094 14.68566353 -18.25 12.8125 C-19.60117632 12.77716048 -20.95432281 12.7968041 -22.3046875 12.85546875 C-23.08457031 12.87673828 -23.86445312 12.89800781 -24.66796875 12.91992188 C-26.29861076 12.97306681 -27.92891192 13.03806646 -29.55859375 13.11523438 C-33.56595462 13.20436019 -35.72687321 13.11220103 -39.27734375 11.078125 C-42.03218088 7.91415365 -42.03693134 6.05428492 -41.796875 2 C-41.05959281 -0.94912874 -39.50917642 -2.5695544 -37.01171875 -4.2578125 C-25.16528706 -10.50936625 -10.68020566 -7.13119322 0 0 Z " fill="#0D100C" transform="translate(598.25,222.1875)"/>
<path d="M0 0 C0.99 0.495 0.99 0.495 2 1 C1.58875378 7.79265315 0.43155451 13.65396985 -2 20 C-2.41572266 21.18722656 -2.41572266 21.18722656 -2.83984375 22.3984375 C-9.47556646 40.45443835 -22.71468842 54.73769702 -39.99169922 62.94628906 C-48.4938365 66.72728271 -56.63547007 68.93806528 -66 69 C-67.13953125 69.03738281 -68.2790625 69.07476563 -69.453125 69.11328125 C-74.8577008 69.22840114 -79.0289498 69.31616151 -84 67 C-81.12704516 66.04234839 -79.59490746 65.92498326 -76.640625 66.04296875 C-57.30129424 66.59128139 -39.49216222 63.21147948 -24.625 49.75 C-10.23796397 36.06528622 -2.98866138 19.3523222 0 0 Z " fill="#EBEAE2" transform="translate(765,764)"/>
<path d="M0 0 C0.495 1.485 0.495 1.485 1 3 C-4.38905491 3.43176745 -9.77845449 3.85884291 -15.16821289 4.28173828 C-16.99839093 4.425984 -18.82847171 4.5714696 -20.65844727 4.71826172 C-23.30199441 4.93009133 -25.94586929 5.13733071 -28.58984375 5.34375 C-29.39646957 5.40937134 -30.2030954 5.47499268 -31.03416443 5.54260254 C-36.37200625 5.95356354 -41.64614804 6.05613475 -47 6 C-47.33 5.34 -47.66 4.68 -48 4 C-15.89849055 -0.77553612 -15.89849055 -0.77553612 0 0 Z " fill="#F6F4EC" transform="translate(520,116)"/>
<path d="M0 0 C0.66 0 1.32 0 2 0 C1.54507476 8.22686804 0.32999802 15.90838671 -1.75 23.875 C-2.01441895 24.91205078 -2.27883789 25.94910156 -2.55126953 27.01757812 C-4.5952981 34.86097201 -7.00320278 42.46822647 -10 50 C-10.33 50 -10.66 50 -11 50 C-10.46107467 43.43431214 -9.16148389 37.68522762 -7.125 31.4375 C-4.37690505 22.68209405 -2.4956016 14.04892767 -1 5 C-0.67433883 3.33181725 -0.34425887 1.66444427 0 0 Z " fill="#F6F4ED" transform="translate(246,415)"/>
<path d="M0 0 C1.8333183 2.74997745 3.24263635 5.521502 4.66503906 8.49682617 C8.11106994 15.66947449 11.74893086 21.96459395 17 28 C18.2065625 29.5159375 18.2065625 29.5159375 19.4375 31.0625 C20.2109375 32.0215625 20.2109375 32.0215625 21 33 C20.01 33 19.02 33 18 33 C16.229834 31.05881796 14.67908822 29.16623308 13.125 27.0625 C12.68172363 26.47364014 12.23844727 25.88478027 11.78173828 25.27807617 C3 13.42224538 3 13.42224538 3 9 C1.35 8.67 -0.3 8.34 -2 8 C-2.268125 8.928125 -2.53625 9.85625 -2.8125 10.8125 C-3.91148371 13.76240366 -4.62418561 15.05615186 -7 17 C-5.24009216 11.08030998 -2.60305395 5.58365008 0 0 Z " fill="#F4E40E" transform="translate(510,374)"/>
<path d="M0 0 C0 0.99 0 1.98 0 3 C-7.72595834 6.26984457 -14.62860644 7.75962291 -23 8 C-24.14597656 8.03996094 -25.29195312 8.07992187 -26.47265625 8.12109375 C-36.05351082 8.30471779 -36.05351082 8.30471779 -41 6 C-38.12704516 5.04234839 -36.59490746 4.92498326 -33.640625 5.04296875 C-21.983116 5.36657658 -10.69968623 5.34984311 0 0 Z " fill="#E6E4DC" transform="translate(722,825)"/>
<path d="M0 0 C3.40866438 1.59932594 6.46852898 3.57777978 9.625 5.625 C17.6367876 10.70224436 26.28189212 14.32097804 35 18 C30.69285515 19.35387548 27.83924939 18.12718908 23.8125 16.4375 C23.14412109 16.16301025 22.47574219 15.88852051 21.78710938 15.60571289 C16.39767173 13.31989743 11.69237416 10.50275818 7 7 C6.30777344 6.53207031 5.61554688 6.06414063 4.90234375 5.58203125 C3.22715508 4.44636657 1.6066947 3.23065977 0 2 C0 1.34 0 0.68 0 0 Z " fill="#F6F5EE" transform="translate(443,843)"/>
<path d="M0 0 C3.60519309 3.60519309 3.05607922 9.52689424 3.125 14.4375 C3.07723738 19.00679081 2.57534287 23.46917487 2 28 C1.34 28 0.68 28 0 28 C0 18.76 0 9.52 0 0 Z " fill="#F8F7F0" transform="translate(863,602)"/>
<path d="M0 0 C0.66 0.33 1.32 0.66 2 1 C-4.68332303 9.22884148 -14.20322051 18.77853873 -25 21 C-25 20.34 -25 19.68 -25 19 C-23.24764922 17.91306077 -21.4449255 16.90705729 -19.625 15.9375 C-12.05019354 11.66154417 -6.08599311 6.14432531 0 0 Z " fill="#F3F2EA" transform="translate(748,806)"/>
<path d="M0 0 C0 0.66 0 1.32 0 2 C-2.99653842 2.68773013 -5.99428266 3.3543597 -9 4 C-9.87785156 4.19078125 -10.75570312 4.3815625 -11.66015625 4.578125 C-18.03538046 5.86234283 -24.49728072 6.77986757 -31 6 C-31.66 5.34 -32.32 4.68 -33 4 C-32.410979 3.9498877 -31.82195801 3.89977539 -31.21508789 3.84814453 C-28.49698087 3.61331542 -25.77977972 3.36920891 -23.0625 3.125 C-22.13630859 3.04636719 -21.21011719 2.96773437 -20.25585938 2.88671875 C-15.00856283 2.40801801 -9.98680333 1.67865444 -4.87280273 0.39794922 C-3 0 -3 0 0 0 Z " fill="#FAF8F1" transform="translate(822,677)"/>
<path d="M0 0 C8.25 0.33 16.5 0.66 25 1 C25 1.66 25 2.32 25 3 C25.66 3.33 26.32 3.66 27 4 C18.09 3.67 9.18 3.34 0 3 C0 2.01 0 1.02 0 0 Z " fill="#EBEAE1" transform="translate(764,679)"/>
<path d="M0 0 C-1.32120828 2.93230193 -2.74638197 4.98664899 -5.0390625 7.234375 C-5.90917969 8.09482422 -5.90917969 8.09482422 -6.796875 8.97265625 C-7.40015625 9.55917969 -8.0034375 10.14570312 -8.625 10.75 C-9.23601563 11.35199219 -9.84703125 11.95398438 -10.4765625 12.57421875 C-11.97988624 14.05405305 -13.48934856 15.52764676 -15 17 C-15.99 16.67 -16.98 16.34 -18 16 C-15.38308836 13.32529045 -12.75518292 10.66165519 -10.125 8 C-9.00544922 6.8553125 -9.00544922 6.8553125 -7.86328125 5.6875 C-7.14785156 4.965625 -6.43242188 4.24375 -5.6953125 3.5 C-5.03547363 2.8296875 -4.37563477 2.159375 -3.69580078 1.46875 C-2 0 -2 0 0 0 Z " fill="#EAE8DF" transform="translate(583,820)"/>
<path d="M0 0 C4.39906005 2.10628311 8.57341508 4.61614541 12.77929688 7.078125 C16.10897012 9.00337296 19.3843235 10.68271368 23 12 C23 12.66 23 13.32 23 14 C14.57590025 12.21081067 7.66827514 8.44887063 1 3 C0.67 2.01 0.34 1.02 0 0 Z " fill="#F8F6EF" transform="translate(257,805)"/>
<path d="M0 0 C0.66 0 1.32 0 2 0 C2 7.59 2 15.18 2 23 C1.67 23 1.34 23 1 23 C-0.89231726 15.0553953 -1.04474629 8.08972465 0 0 Z " fill="#141613" transform="translate(861,604)"/>
<path d="M0 0 C4.32504836 1.65863505 7.09418825 4.871041 10.25 8.125 C11.08144531 8.96998047 11.08144531 8.96998047 11.9296875 9.83203125 C13.29104485 11.21686028 14.64614859 12.60783204 16 14 C15.34 14.66 14.68 15.32 14 16 C11.65861457 13.71643754 9.32833018 11.42186626 7 9.125 C5.99839844 8.14853516 5.99839844 8.14853516 4.9765625 7.15234375 C4.34492187 6.52714844 3.71328125 5.90195313 3.0625 5.2578125 C2.47597656 4.6817627 1.88945313 4.10571289 1.28515625 3.51220703 C0 2 0 2 0 0 Z " fill="#F9F7F0" transform="translate(674,181)"/>
<path d="M0 0 C1.91015625 0.23046875 1.91015625 0.23046875 3.91015625 2.23046875 C1.40518621 3.48295377 -0.29837649 3.34421281 -3.09765625 3.328125 C-4.08378906 3.32490234 -5.06992187 3.32167969 -6.0859375 3.31835938 C-7.11847656 3.30998047 -8.15101563 3.30160156 -9.21484375 3.29296875 C-10.77525391 3.28620117 -10.77525391 3.28620117 -12.3671875 3.27929688 C-14.94146337 3.26748827 -17.51562521 3.2510195 -20.08984375 3.23046875 C-16.94853283 1.55375218 -14.980284 1.02011998 -11.40234375 1.16796875 C-9.96571029 1.22204824 -8.52734981 1.25087959 -7.08984375 1.23046875 C-5.19495423 -0.66442077 -2.51845229 0.05027763 0 0 Z " fill="#161814" transform="translate(511.08984375,860.76953125)"/>
<path d="M0 0 C0.99 0 1.98 0 3 0 C3.50435694 1.9363704 4.00333874 3.87414146 4.5 5.8125 C4.7784375 6.89144531 5.056875 7.97039062 5.34375 9.08203125 C6 12 6 12 6 15 C4.68 14.67 3.36 14.34 2 14 C2.04125 13.113125 2.0825 12.22625 2.125 11.3125 C1.99983508 7.99562968 1.29952547 6.00515264 0 3 C0 2.01 0 1.02 0 0 Z " fill="#171A16" transform="translate(747,310)"/>
<path d="M0 0 C0 3 0 3 -1.19335938 4.53393555 C-1.73798828 5.062854 -2.28261719 5.59177246 -2.84375 6.13671875 C-3.72353516 7.00200195 -3.72353516 7.00200195 -4.62109375 7.88476562 C-5.24113281 8.47966797 -5.86117188 9.07457031 -6.5 9.6875 C-7.12003906 10.29400391 -7.74007813 10.90050781 -8.37890625 11.52539062 C-9.91264707 13.02373743 -11.45548198 14.51276493 -13 16 C-13.66 15.67 -14.32 15.34 -15 15 C-10.39863498 9.46398272 -5.53601728 4.60136502 0 0 Z " fill="#F9F8F0" transform="translate(345,181)"/>
<path d="M0 0 C0.33 0.66 0.66 1.32 1 2 C3.32156597 2.40729228 5.6568787 2.74438677 8 3 C8.33 2.34 8.66 1.68 9 1 C9.33 2.32 9.66 3.64 10 5 C5.76674194 6.18594057 2.89604576 5.71869389 -1.3125 4.5625 C-2.38113281 4.27503906 -3.44976563 3.98757812 -4.55078125 3.69140625 C-5.35902344 3.46324219 -6.16726563 3.23507813 -7 3 C-4.66785852 1.79371992 -2.50357861 0.8345262 0 0 Z " fill="#19180F" transform="translate(561,145)"/>
<path d="M0 0 C6.02770138 0.47587116 10.76678289 3.19722957 16 6 C15.67 6.66 15.34 7.32 15 8 C11.30626473 7.41712333 8.50118255 6.40083644 5.25 4.5625 C4.47140625 4.13066406 3.6928125 3.69882813 2.890625 3.25390625 C1 2 1 2 0 0 Z " fill="#F7F6EF" transform="translate(613,141)"/>
<path d="M0 0 C0.99 0.66 1.98 1.32 3 2 C2.67 3.216875 2.34 4.43375 2 5.6875 C1.19677787 8.87210604 0.79358027 11.6972843 1 15 C-0.32 15.33 -1.64 15.66 -3 16 C-2.40984815 10.49191603 -1.43336231 5.35121931 0 0 Z " fill="#F1D80D" transform="translate(287,331)"/>
<path d="M0 0 C0.66 0 1.32 0 2 0 C3.48473339 2.03629097 4.81552692 4.04283296 6.125 6.1875 C6.49753906 6.76564453 6.87007812 7.34378906 7.25390625 7.93945312 C9.40596525 11.42768063 10.48001377 13.88891432 10 18 C7.62045264 14.90292759 5.43857643 11.71352972 3.3125 8.4375 C2.37857422 7.01244141 2.37857422 7.01244141 1.42578125 5.55859375 C0 3 0 3 0 0 Z " fill="#ECECE4" transform="translate(840,549)"/>
<path d="M0 0 C0.33 0 0.66 0 1 0 C1.07347656 1.88332031 1.07347656 1.88332031 1.1484375 3.8046875 C1.51917143 12.38293989 1.94127579 20.62785486 4 29 C3.01 29 2.02 29 1 29 C-0.69940632 18.97209822 -1.15677322 10.14521377 0 0 Z " fill="#1B1C18" transform="translate(411,340)"/>
<path d="M0 0 C1.16306443 3.54950034 0.92365049 6.55823948 0.5625 10.25 C0.40974609 11.86648438 0.40974609 11.86648438 0.25390625 13.515625 C0.17011719 14.33546875 0.08632813 15.1553125 0 16 C0.66 16 1.32 16 2 16 C1.67 17.98 1.34 19.96 1 22 C-2.47050724 16.79423914 -2.4752455 11.11187819 -2 5 C-1 1.9375 -1 1.9375 0 0 Z " fill="#1E1E1A" transform="translate(549,342)"/>
<path d="M0 0 C0.33 1.32 0.66 2.64 1 4 C0.278125 4.391875 -0.44375 4.78375 -1.1875 5.1875 C-4.11112138 6.91524571 -4.11112138 6.91524571 -6.4375 9.5625 C-9.22324013 12.21235037 -11.31545625 13.0574423 -15 14 C-10.2347969 9.0759568 -5.11342667 4.55740358 0 0 Z " fill="#171916" transform="translate(357,173)"/>
<path d="M0 0 C0.66 0.33 1.32 0.66 2 1 C1.67 1.66 1.34 2.32 1 3 C3.31 3.33 5.62 3.66 8 4 C8 4.33 8 4.66 8 5 C2.06 5.33 -3.88 5.66 -10 6 C-10 5.67 -10 5.34 -10 5 C-8.906875 4.731875 -7.81375 4.46375 -6.6875 4.1875 C-3.38307337 3.12336261 -2.05039578 2.65345336 0 0 Z " fill="#04060B" transform="translate(574,229)"/>
<path d="M0 0 C4.87440007 0.48744001 9.33909281 1.57319168 14 3 C14 3.33 14 3.66 14 4 C11.70839681 4.02692484 9.41670454 4.04636124 7.125 4.0625 C5.84882813 4.07410156 4.57265625 4.08570313 3.2578125 4.09765625 C0 4 0 4 -2 3 C-1 1 -1 1 0 0 Z " fill="#141613" transform="translate(206,666)"/>
<path d="M0 0 C2.10388569 -0.05402274 4.20816714 -0.09280256 6.3125 -0.125 C8.07013672 -0.15980469 8.07013672 -0.15980469 9.86328125 -0.1953125 C13 0 13 0 16 2 C16 2.66 16 3.32 16 4 C11.05 3.67 6.1 3.34 1 3 C0.67 2.01 0.34 1.02 0 0 Z " fill="#17180E" transform="translate(760,656)"/>
<path d="M0 0 C0.99 0.33 1.98 0.66 3 1 C2.34 5.95 1.68 10.9 1 16 C-1.49310643 12.26034036 -1.0603261 10.70929359 -0.625 6.3125 C-0.51414063 5.13300781 -0.40328125 3.95351563 -0.2890625 2.73828125 C-0.19367188 1.83464844 -0.09828125 0.93101562 0 0 Z " fill="#E5E4DC" transform="translate(248,402)"/>
<path d="M0 0 C0 0.99 0 1.98 0 3 C-0.61488281 3.32613281 -1.22976563 3.65226563 -1.86328125 3.98828125 C-2.67152344 4.42527344 -3.47976563 4.86226562 -4.3125 5.3125 C-5.11300781 5.74175781 -5.91351562 6.17101562 -6.73828125 6.61328125 C-9.02250381 7.89283846 -9.02250381 7.89283846 -10.66796875 9.66796875 C-11.10753906 10.10753906 -11.54710937 10.54710937 -12 11 C-12.66 11 -13.32 11 -14 11 C-12.52567422 7.13827168 -10.54701627 5.81800775 -7 3.8125 C-6.113125 3.30332031 -5.22625 2.79414062 -4.3125 2.26953125 C-2.88855541 1.48780491 -1.45291824 0.72645912 0 0 Z " fill="#F3F2EA" transform="translate(597,810)"/>
<path d="M0 0 C1.32 0.33 2.64 0.66 4 1 C4.103125 2.11375 4.20625 3.2275 4.3125 4.375 C4.6528125 6.169375 4.6528125 6.169375 5 8 C5.99 8.66 6.98 9.32 8 10 C8 10.99 8 11.98 8 13 C7.01 13 6.02 13 5 13 C4.16209211 11.21046815 3.32980604 9.41830305 2.5 7.625 C1.80390625 6.12839844 1.80390625 6.12839844 1.09375 4.6015625 C0 2 0 2 0 0 Z " fill="#14120F" transform="translate(401,376)"/>
<path d="M0 0 C5.35152885 0.32433508 8.28280043 3.49704824 12 7 C11.67 7.66 11.34 8.32 11 9 C10.34 8.34 9.68 7.68 9 7 C6.68351201 5.96157435 4.35096976 4.9578025 2 4 C2 3.34 2 2.68 2 2 C1.34 2 0.68 2 0 2 C0 1.34 0 0.68 0 0 Z " fill="#6B6B66" transform="translate(436,837)"/>
<path d="M0 0 C4.95 0.99 9.9 1.98 15 3 C14.67 3.66 14.34 4.32 14 5 C12.41632253 4.85795259 10.83306682 4.71119847 9.25 4.5625 C8.36828125 4.48128906 7.4865625 4.40007813 6.578125 4.31640625 C4.30649548 4.03761535 2.20148177 3.61209423 0 3 C0 2.01 0 1.02 0 0 Z " fill="#DFDED6" transform="translate(280,817)"/>
<path d="M0 0 C0.89506817 2.96986552 1.03315169 5.25639788 0.66015625 8.328125 C0.56669922 9.12734375 0.47324219 9.9265625 0.37695312 10.75 C0.27318359 11.575 0.16941406 12.4 0.0625 13.25 C-0.08735352 14.51070312 -0.08735352 14.51070312 -0.24023438 15.796875 C-0.48704258 17.86536277 -0.74266284 19.93279572 -1 22 C-1.33 22 -1.66 22 -2 22 C-2.24970296 19.27131829 -2.47531211 16.54413986 -2.6875 13.8125 C-2.76033203 13.04357422 -2.83316406 12.27464844 -2.90820312 11.48242188 C-3.25584991 6.71761597 -3.06847965 3.93617312 0 0 Z " fill="#FAEC0B" transform="translate(735,677)"/>
<path d="M0 0 C2.64 0 5.28 0 8 0 C7.67 1.32 7.34 2.64 7 4 C1.06 3.67 -4.88 3.34 -11 3 C-11 2.67 -11 2.34 -11 2 C-5.555 1.505 -5.555 1.505 0 1 C0 0.67 0 0.34 0 0 Z " fill="#131712" transform="translate(803,676)"/>
<path d="M0 0 C0.66 0 1.32 0 2 0 C2.39083065 2.08042163 2.7621087 4.16452339 3.125 6.25 C3.33382812 7.41015625 3.54265625 8.5703125 3.7578125 9.765625 C4 13 4 13 2 17 C1.34 11.39 0.68 5.78 0 0 Z " fill="#E7E7DF" transform="translate(763,378)"/>
<path d="M0 0 C0.99 0.33 1.98 0.66 3 1 C0.03 4.3 -2.94 7.6 -6 11 C-6.99 10.67 -7.98 10.34 -9 10 C-8.01 9.67 -7.02 9.34 -6 9 C-5.87625 8.4225 -5.7525 7.845 -5.625 7.25 C-4.70302589 3.93089319 -2.48202881 2.29110352 0 0 Z " fill="#E8E7DE" transform="translate(329,197)"/>
<path d="M0 0 C-3.06975587 2.04650391 -5.69084152 2.99704565 -9.1875 4.125 C-10.27417969 4.47820313 -11.36085938 4.83140625 -12.48046875 5.1953125 C-13.31191406 5.46085938 -14.14335937 5.72640625 -15 6 C-15.33 5.01 -15.66 4.02 -16 3 C-14.27318563 2.49193553 -12.54342021 1.99389533 -10.8125 1.5 C-9.84957031 1.2215625 -8.88664062 0.943125 -7.89453125 0.65625 C-5.14654124 0.03322392 -2.80401584 -0.12302812 0 0 Z " fill="#171916" transform="translate(352,809)"/>
<path d="M0 0 C0.66 0.66 1.32 1.32 2 2 C1.98252073 4.75589777 1.86136729 7.38786676 1.625 10.125 C1.56828125 10.87910156 1.5115625 11.63320313 1.453125 12.41015625 C1.3115535 14.27418096 1.15700041 16.13721137 1 18 C-2.22395275 13.16407087 -1.28671404 8.04283751 -0.5 2.4375 C-0.335 1.633125 -0.17 0.82875 0 0 Z " fill="#E8E7DE" transform="translate(234,725)"/>
<path d="M0 0 C6.93 0.495 6.93 0.495 14 1 C14 1.33 14 1.66 14 2 C12.02 2.33 10.04 2.66 8 3 C8 3.33 8 3.66 8 4 C5.36 4 2.72 4 0 4 C0 2.68 0 1.36 0 0 Z " fill="#15170E" transform="translate(492,140)"/>
<path d="M0 0 C0.99 0 1.98 0 3 0 C2.93940934 1.41782145 2.85045877 2.83444466 2.75 4.25 C2.70359375 5.03890625 2.6571875 5.8278125 2.609375 6.640625 C2 9 2 9 -2 13 C-1.34 8.71 -0.68 4.42 0 0 Z " fill="#171A16" transform="translate(241,698)"/>
<path d="M0 0 C0.66 0 1.32 0 2 0 C1.5547115 5.27315333 0.91626837 10.01770224 -1 15 C-1.33 15 -1.66 15 -2 15 C-1.85816304 13.24967156 -1.71136571 11.49974466 -1.5625 9.75 C-1.48128906 8.77546875 -1.40007812 7.8009375 -1.31640625 6.796875 C-1.04925416 4.43538247 -0.64628032 2.28098935 0 0 Z " fill="#F7F6EE" transform="translate(156,584)"/>
<path d="M0 0 C3.8063457 0.67170806 7.35206816 1.72746564 11 3 C11 3.99 11 4.98 11 6 C5.06 4.515 5.06 4.515 -1 3 C-0.67 2.01 -0.34 1.02 0 0 Z " fill="#EAE9E0" transform="translate(578,127)"/>
<path d="M0 0 C4.29 0 8.58 0 13 0 C13.33 0.66 13.66 1.32 14 2 C3.44191344 3.33257403 3.44191344 3.33257403 -1 2 C-0.67 1.34 -0.34 0.68 0 0 Z " fill="#FBFBF8" transform="translate(507,117)"/>
<path d="M0 0 C3.85103301 0.53675903 5.31797587 2.11600923 7.75 5.0625 C8.36359375 5.79597656 8.9771875 6.52945313 9.609375 7.28515625 C10.06828125 7.85105469 10.5271875 8.41695312 11 9 C10.34 9.66 9.68 10.32 9 11 C7.49703315 9.35687553 5.99769719 7.71042916 4.5 6.0625 C3.6646875 5.14597656 2.829375 4.22945312 1.96875 3.28515625 C0 1 0 1 0 0 Z " fill="#E9E8E0" transform="translate(805,510)"/>
<path d="M0 0 C0.33 0 0.66 0 1 0 C1.13277344 0.97582031 1.26554688 1.95164062 1.40234375 2.95703125 C1.57894531 4.22933594 1.75554688 5.50164062 1.9375 6.8125 C2.11152344 8.07707031 2.28554688 9.34164063 2.46484375 10.64453125 C2.90392455 13.98321703 2.90392455 13.98321703 4 17 C3.34 17.66 2.68 18.32 2 19 C0.26044666 12.56986533 -0.24991456 6.65050424 0 0 Z " fill="#04040A" transform="translate(745,401)"/>
<path d="M0 0 C2.53406213 0.41412689 3.38974184 1.39458144 5.0078125 3.328125 C3.5707316 3.38235447 2.13305788 3.42102223 0.6953125 3.453125 C-0.10519531 3.47632812 -0.90570312 3.49953125 -1.73046875 3.5234375 C-3.9921875 3.328125 -3.9921875 3.328125 -6.9921875 1.328125 C-5.11954074 -0.54452176 -2.49458803 0.09205122 0 0 Z " fill="#F9F9F2" transform="translate(544.9921875,118.671875)"/>
<path d="M0 0 C2.86867231 1.38264837 5.56024032 2.92148553 8.25 4.625 C8.95640625 5.07101562 9.6628125 5.51703125 10.390625 5.9765625 C10.92171875 6.31429687 11.4528125 6.65203125 12 7 C11.34 7.66 10.68 8.32 10 9 C8.3278148 7.88321917 6.66237197 6.75633648 5 5.625 C3.6078125 4.68527344 3.6078125 4.68527344 2.1875 3.7265625 C1.465625 3.15679688 0.74375 2.58703125 0 2 C0 1.34 0 0.68 0 0 Z " fill="#ECEBE2" transform="translate(443,843)"/>
<path d="M0 0 C2 1 2 1 3.125 4.25 C3.85463482 7.37700635 4.19234975 9.82622905 4 13 C3.01 12.67 2.02 12.34 1 12 C0.67 8.04 0.34 4.08 0 0 Z " fill="#171916" transform="translate(857,586)"/>
<path d="M0 0 C2 1 2 1 4 4 C4.07905064 6.33199388 4.08798769 8.66832622 4 11 C3.01 11 2.02 11 1 11 C0.67 7.37 0.34 3.74 0 0 Z " fill="#EBEAE2" transform="translate(769,415)"/>
<path d="M0 0 C0.66 0.33 1.32 0.66 2 1 C1.01 3.64 0.02 6.28 -1 9 C-1.66 9 -2.32 9 -3 9 C-3.66 6.36 -4.32 3.72 -5 1 C-3.68 1.33 -2.36 1.66 -1 2 C-0.67 1.34 -0.34 0.68 0 0 Z " fill="#F0E10E" transform="translate(514,310)"/>
<path d="M0 0 C0.99 0.495 0.99 0.495 2 1 C2 1.66 2 2.32 2 3 C2.66 3 3.32 3 4 3 C5.42258812 6.82320557 6.24042276 9.91281305 6 14 C4.45372329 11.68058494 3.13817172 9.47020248 1.875 7 C1.52179688 6.319375 1.16859375 5.63875 0.8046875 4.9375 C0 3 0 3 0 0 Z " fill="#161815" transform="translate(490,305)"/>
<path d="M0 0 C0.66 0 1.32 0 2 0 C0.68938409 4.23429756 -0.94356259 8.07407404 -3 12 C-3.66 12 -4.32 12 -5 12 C-4.35550393 8.98782888 -3.34977818 6.48344164 -1.9375 3.75 C-1.57527344 3.04359375 -1.21304687 2.3371875 -0.83984375 1.609375 C-0.56269531 1.07828125 -0.28554688 0.5471875 0 0 Z " fill="#F9F8F0" transform="translate(290,252)"/>
<path d="M0 0 C4.95 0 9.9 0 15 0 C15 0.66 15 1.32 15 2 C10.05 2.33 5.1 2.66 0 3 C0 2.01 0 1.02 0 0 Z " fill="#EDCA0D" transform="translate(294,795)"/>
<path d="M0 0 C3.91939465 3.80411834 7.49102731 7.81576108 11 12 C10.01 12 9.02 12 8 12 C5.95703125 9.8828125 5.95703125 9.8828125 3.8125 7.125 C3.09707031 6.22007812 2.38164063 5.31515625 1.64453125 4.3828125 C0 2 0 2 0 0 Z " fill="#E5D80F" transform="translate(520,395)"/>
<path d="M0 0 C0.66 0 1.32 0 2 0 C2.22151549 1.79008467 2.42682213 3.58218162 2.625 5.375 C2.74101563 6.37273437 2.85703125 7.37046875 2.9765625 8.3984375 C2.98429688 9.25695312 2.99203125 10.11546875 3 11 C2.34 11.66 1.68 12.32 1 13 C0.1276588 10.00519083 -0.10829766 7.36424089 -0.0625 4.25 C-0.05347656 3.45078125 -0.04445313 2.6515625 -0.03515625 1.828125 C-0.02355469 1.22484375 -0.01195312 0.6215625 0 0 Z " fill="#F8F6EF" transform="translate(766,391)"/>
<path d="M0 0 C0 0.66 0 1.32 0 2 C1.32 2.66 2.64 3.32 4 4 C4 4.99 4 5.98 4 7 C2.72881136 6.20890398 1.45806377 5.41709922 0.1875 4.625 C-0.52019531 4.18414062 -1.22789062 3.74328125 -1.95703125 3.2890625 C-3.65432039 2.21811524 -5.33014358 1.11323761 -7 0 C-3.86650268 -1.04449911 -3.01031744 -0.93423645 0 0 Z " fill="#161815" transform="translate(475,287)"/>
<path d="M0 0 C0.33 0.99 0.66 1.98 1 3 C-5.625 6 -5.625 6 -9 6 C-9 5.34 -9 4.68 -9 4 C-6.03 2.68 -3.06 1.36 0 0 Z " fill="#E4E3DA" transform="translate(831,672)"/>
<path d="M0 0 C0.66 0.33 1.32 0.66 2 1 C-3.0022779 8.66742597 -3.0022779 8.66742597 -7 10 C-6.52727227 5.74545047 -4.03562624 3.80795427 -1 1 C-0.67 0.67 -0.34 0.34 0 0 Z " fill="#171916" transform="translate(586,369)"/>
<path d="M0 0 C0.66 0.33 1.32 0.66 2 1 C0.68 4.63 -0.64 8.26 -2 12 C-2.66 11.01 -3.32 10.02 -4 9 C-3.125 5.3125 -3.125 5.3125 -2 2 C-1.34 2 -0.68 2 0 2 C0 1.34 0 0.68 0 0 Z " fill="#131613" transform="translate(417,310)"/>
<path d="M0 0 C3.3 0 6.6 0 10 0 C10 0.99 10 1.98 10 3 C6.7 2.67 3.4 2.34 0 2 C0 1.34 0 0.68 0 0 Z " fill="#F8F7EF" transform="translate(294,821)"/>
<path d="M0 0 C3.23861303 1.44424635 5.61969163 3.25772247 8.25 5.625 C8.95640625 6.25664063 9.6628125 6.88828125 10.390625 7.5390625 C10.92171875 8.02117188 11.4528125 8.50328125 12 9 C11.34 9.66 10.68 10.32 10 11 C8.33035479 9.35718838 6.6643536 7.71067239 5 6.0625 C4.071875 5.14597656 3.14375 4.22945312 2.1875 3.28515625 C0 1 0 1 0 0 Z " fill="#EBDD10" transform="translate(436,804)"/>
<path d="M0 0 C0 0.66 0 1.32 0 2 C-1.43657245 2.33730842 -2.87430093 2.66969591 -4.3125 3 C-5.51326172 3.2784375 -5.51326172 3.2784375 -6.73828125 3.5625 C-9 4 -9 4 -12 4 C-12 3.34 -12 2.68 -12 2 C-10.56342755 1.66269158 -9.12569907 1.33030409 -7.6875 1 C-6.88699219 0.814375 -6.08648438 0.62875 -5.26171875 0.4375 C-3 0 -3 0 0 0 Z " fill="#F1F0E8" transform="translate(822,677)"/>
<path d="M0 0 C0.66 0 1.32 0 2 0 C1.43454163 3.95820859 0.19097652 6.6659053 -2 10 C-2.99 9.67 -3.98 9.34 -5 9 C-3.35 6.03 -1.7 3.06 0 0 Z " fill="#EAE9E0" transform="translate(857,644)"/>
<path d="M0 0 C4.2742558 1.5830577 6.26531794 4.50568404 9 8 C6 8 6 8 4.39453125 6.7578125 C3.87246094 6.21898437 3.35039063 5.68015625 2.8125 5.125 C2.28269531 4.59132813 1.75289062 4.05765625 1.20703125 3.5078125 C0 2 0 2 0 0 Z " fill="#F8F7EE" transform="translate(815,520)"/>
<path d="M0 0 C0.66 0.33 1.32 0.66 2 1 C1.484375 2.11375 0.96875 3.2275 0.4375 4.375 C-0.036875 5.57125 -0.51125 6.7675 -1 8 C-0.67 8.66 -0.34 9.32 0 10 C-1.65 10.66 -3.3 11.32 -5 12 C-3.68938409 7.76570244 -2.05643741 3.92592596 0 0 Z " fill="#1E201C" transform="translate(291,254)"/>
<path d="M0 0 C0.66 0 1.32 0 2 0 C0.55049545 3.7910119 -1.15172566 7.3874638 -3 11 C-3.66 10.67 -4.32 10.34 -5 10 C-3.66749209 6.4124787 -2.169283 3.1635377 0 0 Z " fill="#E8E7DE" transform="translate(296,242)"/>
<path d="M0 0 C-1.3418344 4.02550319 -3.4227573 4.88285636 -7 7 C-7.66 7 -8.32 7 -9 7 C-7.4576387 2.93377477 -4.5679954 0 0 0 Z " fill="#F8F7F0" transform="translate(375,159)"/>
<path d="M0 0 C-0.33 0.99 -0.66 1.98 -1 3 C-4.5625 4.6875 -4.5625 4.6875 -8 6 C-8.66 5.34 -9.32 4.68 -10 4 C-8.71086513 3.32845067 -7.41859796 2.66291141 -6.125 2 C-5.40570312 1.62875 -4.68640625 1.2575 -3.9453125 0.875 C-2 0 -2 0 0 0 Z " fill="#EAE9E1" transform="translate(545,853)"/>
<path d="M0 0 C0.99 0.495 0.99 0.495 2 1 C2.4140625 3.06640625 2.4140625 3.06640625 2.625 5.5625 C2.69976563 6.38878906 2.77453125 7.21507812 2.8515625 8.06640625 C2.92503906 9.02353516 2.92503906 9.02353516 3 10 C2.01 10.495 2.01 10.495 1 11 C-0.17571451 7.32589215 -0.07366746 3.83070817 0 0 Z " fill="#EFEEE7" transform="translate(758,698)"/>
<path d="M0 0 C3.3 0 6.6 0 10 0 C10 0.66 10 1.32 10 2 C6.7 2.33 3.4 2.66 0 3 C0 2.01 0 1.02 0 0 Z " fill="#DCDBD4" transform="translate(764,679)"/>
<path d="M0 0 C0.66 0.33 1.32 0.66 2 1 C2.59355614 3.64860427 2.74209269 6.29197322 3 9 C2.01 9 1.02 9 0 9 C-1.125 2.25 -1.125 2.25 0 0 Z " fill="#ECEAE0" transform="translate(862,595)"/>
<path d="M0 0 C0.99 0 1.98 0 3 0 C1.79618552 2.49361571 0.54571278 4.68143083 -1 7 C-1.99 6.67 -2.98 6.34 -4 6 C-2.1875 3 -2.1875 3 0 0 Z " fill="#131612" transform="translate(185,539)"/>
<path d="M0 0 C2.02855159 2.02855159 3.00835839 3.33019566 4 6 C3.625 8.75 3.625 8.75 3 11 C0.81024227 7.71536341 0.00193437 4.79303725 -1 1 C-0.67 0.67 -0.34 0.34 0 0 Z " fill="#EDECE3" transform="translate(780,461)"/>
<path d="M0 0 C0.33 0 0.66 0 1 0 C1.29162929 4.95769796 1.12940055 8.02806853 -2 12 C-2.66 12 -3.32 12 -4 12 C-2.66666667 8 -1.33333333 4 0 0 Z " fill="#EAD70E" transform="translate(302,284)"/>
<path d="M0 0 C1.85625 0.061875 1.85625 0.061875 3.75 0.125 C2.76 0.455 1.77 0.785 0.75 1.125 C0.75 1.785 0.75 2.445 0.75 3.125 C-2.22 2.795 -5.19 2.465 -8.25 2.125 C-4.63863788 0.31931894 -3.705469 -0.12351563 0 0 Z " fill="#17170E" transform="translate(444.25,215.875)"/>
<path d="M0 0 C4.95 1.98 4.95 1.98 10 4 C9.67 4.66 9.34 5.32 9 6 C6.61435923 5.42415568 4.33317216 4.77772405 2 4 C2 3.34 2 2.68 2 2 C1.34 2 0.68 2 0 2 C0 1.34 0 0.68 0 0 Z " fill="#131612" transform="translate(611,142)"/>
<path d="M0 0 C0.99 0.33 1.98 0.66 3 1 C4.6900877 4.80269732 5.19873962 7.05272168 4 11 C3.32880451 9.5437455 2.66318193 8.08492133 2 6.625 C1.62875 5.81289063 1.2575 5.00078125 0.875 4.1640625 C0 2 0 2 0 0 Z " fill="#181A17" transform="translate(158,631)"/>
<path d="M0 0 C0.66 0.33 1.32 0.66 2 1 C-0.875 7.75 -0.875 7.75 -2 10 C-2.66 10 -3.32 10 -4 10 C-2.8905928 6.51329166 -1.73662334 3.22515763 0 0 Z " fill="#1C100C" transform="translate(503,558)"/>
<path d="M0 0 C2.31 1.98 4.62 3.96 7 6 C6.34 7.32 5.68 8.64 5 10 C4.16121545 8.71186658 3.32913217 7.41936744 2.5 6.125 C2.0359375 5.40570313 1.571875 4.68640625 1.09375 3.9453125 C0 2 0 2 0 0 Z " fill="#EEDB0E" transform="translate(673,426)"/>
<path d="M0 0 C-0.33 2.64 -0.66 5.28 -1 8 C-1.99 8 -2.98 8 -4 8 C-3.74438677 5.6568787 -3.40729228 3.32156597 -3 1 C-1 0 -1 0 0 0 Z " fill="#161814" transform="translate(501,356)"/>
<path d="M0 0 C0.99 0.33 1.98 0.66 3 1 C3.33 4.3 3.66 7.6 4 11 C3.34 10.67 2.68 10.34 2 10 C2 7.69 2 5.38 2 3 C1.34 3 0.68 3 0 3 C0 2.01 0 1.02 0 0 Z " fill="#171A16" transform="translate(756,352)"/>
<path d="M0 0 C3.25543229 0.34879632 4.01873107 1.02133261 6.25 3.5625 C6.8275 4.366875 7.405 5.17125 8 6 C7.67 6.66 7.34 7.32 7 8 C5.8274869 7.04882866 4.66212985 6.08882991 3.5 5.125 C2.8503125 4.59132813 2.200625 4.05765625 1.53125 3.5078125 C1.0259375 3.01023437 0.520625 2.51265625 0 2 C0 1.34 0 0.68 0 0 Z " fill="#1C1E1A" transform="translate(170,651)"/>
<path d="M0 0 C4.75 0.75 4.75 0.75 7 3 C5.8553125 2.9071875 5.8553125 2.9071875 4.6875 2.8125 C1.95474688 2.74101915 1.95474688 2.74101915 0.1875 4.5 C-0.4003125 5.2425 -0.4003125 5.2425 -1 6 C-1.66 5.67 -2.32 5.34 -3 5 C-2.01 3.35 -1.02 1.7 0 0 Z " fill="#DACB10" transform="translate(361,447)"/>
<path d="M0 0 C1.65 1.65 3.3 3.3 5 5 C4.34 5.66 3.68 6.32 3 7 C0.875 6.625 0.875 6.625 -1 6 C-0.67 4.02 -0.34 2.04 0 0 Z " fill="#F5E20F" transform="translate(642,426)"/>
<path d="M0 0 C0.99 0.33 1.98 0.66 3 1 C2.67 3.97 2.34 6.94 2 10 C1.67 10 1.34 10 1 10 C0.67 6.7 0.34 3.4 0 0 Z " fill="#E1E0D7" transform="translate(757,343)"/>
<path d="M0 0 C0.99 0.33 1.98 0.66 3 1 C1.71034824 2.37562854 0.37310707 3.70766393 -1 5 C-1.66 5 -2.32 5 -3 5 C-3 5.66 -3 6.32 -3 7 C-3.66 7 -4.32 7 -5 7 C-3.70700306 4.11562221 -2.34058637 2.12780579 0 0 Z " fill="#F8F6EF" transform="translate(564,837)"/>
<path d="M0 0 C1.34173403 0.92543709 2.67320159 1.86577405 4 2.8125 C5.11375 3.59560547 5.11375 3.59560547 6.25 4.39453125 C6.8275 4.92433594 7.405 5.45414063 8 6 C8 6.99 8 7.98 8 9 C6.84775972 8.07038578 5.70340824 7.1309875 4.5625 6.1875 C3.60537109 5.40439453 3.60537109 5.40439453 2.62890625 4.60546875 C1 3 1 3 0 0 Z " fill="#1C1E1A" transform="translate(416,816)"/>
<path d="M0 0 C0.66 0.66 1.32 1.32 2 2 C1.75 5.0625 1.75 5.0625 1 8 C0.01 8.495 0.01 8.495 -1 9 C-1.125 2.25 -1.125 2.25 0 0 Z " fill="#F1DB0E" transform="translate(262,713)"/>
<path d="M0 0 C2.09782787 2.09782787 2.6509396 3.3799207 3.625 6.125 C4.01558594 7.21167969 4.01558594 7.21167969 4.4140625 8.3203125 C4.70410156 9.15175781 4.70410156 9.15175781 5 10 C4.01 10 3.02 10 2 10 C0.68373308 6.38026598 0 3.90432869 0 0 Z " fill="#F7F6F0" transform="translate(157,631)"/>
<path d="M0 0 C0.66 0 1.32 0 2 0 C1.67 2.64 1.34 5.28 1 8 C0.01 8 -0.98 8 -2 8 C-1.125 2.25 -1.125 2.25 0 0 Z " fill="#E5E4DC" transform="translate(258,352)"/>
<path d="M0 0 C0.66 0.33 1.32 0.66 2 1 C-0.475 5.455 -0.475 5.455 -3 10 C-3.66 9.67 -4.32 9.34 -5 9 C-5 6 -5 6 -3.625 4.5 C-3.08875 4.005 -2.5525 3.51 -2 3 C-1.34 2.01 -0.68 1.02 0 0 Z " fill="#E5D40F" transform="translate(407,298)"/>
<path d="M0 0 C0.66 0 1.32 0 2 0 C1.5205537 4.21912747 0.83374881 6.79663178 -2 10 C-1.54177532 6.53058454 -1.10868317 3.32604951 0 0 Z " fill="#F2F1EA" transform="translate(279,275)"/>
<path d="M0 0 C-0.66 0 -1.32 0 -2 0 C-2.33 0.99 -2.66 1.98 -3 3 C-5.0625 3.6875 -5.0625 3.6875 -7 4 C-7.33 3.01 -7.66 2.02 -8 1 C-3.375 -1.125 -3.375 -1.125 0 0 Z " fill="#131612" transform="translate(723,824)"/>
<path d="M0 0 C2.31 1.98 4.62 3.96 7 6 C6.01 6.33 5.02 6.66 4 7 C3.731875 6.360625 3.46375 5.72125 3.1875 5.0625 C2.11332248 2.66868314 2.11332248 2.66868314 -1 2 C-0.67 1.34 -0.34 0.68 0 0 Z " fill="#E5E4DC" transform="translate(251,798)"/>
<path d="M0 0 C2.08954032 4.17908064 2.16552619 4.80410573 1 9 C0.34 9 -0.32 9 -1 9 C-0.67 6.03 -0.34 3.06 0 0 Z " fill="#ECEADF" transform="translate(241,686)"/>
<path d="M0 0 C0.99 0.33 1.98 0.66 3 1 C1.9024777 3.99324263 1.32317108 4.84610901 -1.625 6.25 C-2.40875 6.4975 -3.1925 6.745 -4 7 C-2.68 4.69 -1.36 2.38 0 0 Z " fill="#F3DD0F" transform="translate(235,514)"/>
<path d="M0 0 C0.99 0.33 1.98 0.66 3 1 C1.35 2.98 -0.3 4.96 -2 7 C-2.66 6.67 -3.32 6.34 -4 6 C-2.68 4.02 -1.36 2.04 0 0 Z " fill="#F4F3EB" transform="translate(212,504)"/>
<path d="M0 0 C0.66 0.33 1.32 0.66 2 1 C1.67 2.98 1.34 4.96 1 7 C0.01 7 -0.98 7 -2 7 C-1.34 4.69 -0.68 2.38 0 0 Z " fill="#131612" transform="translate(610,357)"/>
<path d="M0 0 C2.35953094 2.35953094 2.49141413 3.77895617 3 7 C1.68 7.33 0.36 7.66 -1 8 C-0.67 5.36 -0.34 2.72 0 0 Z " fill="#E5CD0F" transform="translate(285,339)"/>
<path d="M0 0 C2.64 0 5.28 0 8 0 C8 0.99 8 1.98 8 3 C3.44615385 3.36923077 3.44615385 3.36923077 1.1875 1.5 C0.5996875 0.7575 0.5996875 0.7575 0 0 Z " fill="#1C1D18" transform="translate(463,319)"/>
<path d="M0 0 C1.04449911 3.13349732 0.93423645 3.98968256 0 7 C-0.99 7 -1.98 7 -3 7 C-1.125 1.125 -1.125 1.125 0 0 Z " fill="#EED60E" transform="translate(314,261)"/>
<path d="M0 0 C0.99 0 1.98 0 3 0 C2.34 1.98 1.68 3.96 1 6 C0.01 6 -0.98 6 -2 6 C-1.34 4.02 -0.68 2.04 0 0 Z " fill="#131612" transform="translate(758,783)"/>
<path d="M0 0 C2.29013653 3.4352048 2.17842973 4.985331 2 9 C1.01 9.495 1.01 9.495 0 10 C-0.74926071 6.33694766 -1.2380014 3.57644848 0 0 Z " fill="#141713" transform="translate(238,765)"/>
<path d="M0 0 C2 2 2 2 2.125 5.125 C2.08375 6.07375 2.0425 7.0225 2 8 C1.01 8 0.02 8 -1 8 C-0.67 5.36 -0.34 2.72 0 0 Z " fill="#E3CB0E" transform="translate(264,700)"/>
<path d="M0 0 C0.66 0.33 1.32 0.66 2 1 C2 3.31 2 5.62 2 8 C1.01 7.67 0.02 7.34 -1 7 C-1.04254356 5.00045254 -1.04080783 2.99958364 -1 1 C-0.67 0.67 -0.34 0.34 0 0 Z " fill="#EDCD0D" transform="translate(266,671)"/>
<path d="M0 0 C1.65 0 3.3 0 5 0 C5.33 1.32 5.66 2.64 6 4 C4.02 3.34 2.04 2.68 0 2 C0 1.34 0 0.68 0 0 Z " fill="#1B1D19" transform="translate(183,661)"/>
<path d="M0 0 C2 3 2 3 1.625 6.1875 C1.41875 7.115625 1.2125 8.04375 1 9 C0.34 8.67 -0.32 8.34 -1 8 C-0.67 5.36 -0.34 2.72 0 0 Z " fill="#EAE9E1" transform="translate(862,627)"/>
<path d="M0 0 C2.4375 0.75 2.4375 0.75 5 2 C5.8125 4.125 5.8125 4.125 6 6 C5.01 6.495 5.01 6.495 4 7 C2.02 3.535 2.02 3.535 0 0 Z " fill="#16150F" transform="translate(419,577)"/>
<path d="M0 0 C0.99 0.33 1.98 0.66 3 1 C3.33 2.98 3.66 4.96 4 7 C3.01 7.495 3.01 7.495 2 8 C0.74335022 5.09399739 0 3.20395416 0 0 Z " fill="#EBEAE2" transform="translate(854,574)"/>
<path d="M0 0 C0.99 0.99 1.98 1.98 3 3 C2.01 4.485 2.01 4.485 1 6 C0.01 6 -0.98 6 -2 6 C-1.125 1.125 -1.125 1.125 0 0 Z " fill="#131712" transform="translate(827,535)"/>
<path d="M0 0 C1.98 1.65 3.96 3.3 6 5 C5.34 5.66 4.68 6.32 4 7 C2 5.1875 2 5.1875 0 3 C0 2.01 0 1.02 0 0 Z " fill="#1C1E1A" transform="translate(816,523)"/>
<path d="M0 0 C0.66 0.66 1.32 1.32 2 2 C2.66 1.67 3.32 1.34 4 1 C4.33 2.65 4.66 4.3 5 6 C4.01 6.495 4.01 6.495 3 7 C3 6.34 3 5.68 3 5 C1.68 4.34 0.36 3.68 -1 3 C-0.67 2.01 -0.34 1.02 0 0 Z " fill="#161A16" transform="translate(236,463)"/>
<path d="M0 0 C0.66 0 1.32 0 2 0 C1.67 2.64 1.34 5.28 1 8 C0.01 8 -0.98 8 -2 8 C-1.34 5.36 -0.68 2.72 0 0 Z " fill="#1A1A17" transform="translate(449,330)"/>
<path d="M0 0 C-1.29299694 2.88437779 -2.65941363 4.87219421 -5 7 C-5.66 6.34 -6.32 5.68 -7 5 C-2.25 0 -2.25 0 0 0 Z " fill="#EBD60E" transform="translate(428,245)"/>
<path d="M0 0 C0.66 0 1.32 0 2 0 C2 2.31 2 4.62 2 7 C1.01 7 0.02 7 -1 7 C-0.67 4.69 -0.34 2.38 0 0 Z " fill="#15150D" transform="translate(613,240)"/>
<path d="M0 0 C-4.625 3 -4.625 3 -8 3 C-8 2.34 -8 1.68 -8 1 C-4.93251126 -0.86240388 -3.40254489 -1.2151946 0 0 Z " fill="#F9F8F0" transform="translate(411,141)"/>
<path d="" fill="#F4F0E0" transform="translate(0,0)"/>
</svg>
