<svg width="512" height="512" viewBox="0 0 512 512" fill="none" xmlns="http://www.w3.org/2000/svg">
  <!-- Background circle -->
  <circle cx="256" cy="256" r="240" fill="#FF4500" stroke="#DC143C" stroke-width="8"/>
  
  <!-- Angry eyebrows -->
  <rect x="150" y="160" width="60" height="12" rx="6" fill="#8B0000" transform="rotate(20 180 166)"/>
  <rect x="302" y="160" width="60" height="12" rx="6" fill="#8B0000" transform="rotate(-20 332 166)"/>
  
  <!-- Eyes -->
  <circle cx="180" cy="220" r="18" fill="#8B0000"/>
  <circle cx="332" cy="220" r="18" fill="#8B0000"/>
  
  <!-- Angry mouth -->
  <path d="M 200 350 Q 256 320 312 350" stroke="#8B0000" stroke-width="8" fill="none" stroke-linecap="round"/>
  
  <!-- Steam lines -->
  <path d="M 200 100 Q 205 80 200 60 Q 195 80 200 100" stroke="#FF6347" stroke-width="4" fill="none" stroke-linecap="round"/>
  <path d="M 256 90 Q 261 70 256 50 Q 251 70 256 90" stroke="#FF6347" stroke-width="4" fill="none" stroke-linecap="round"/>
  <path d="M 312 100 Q 317 80 312 60 Q 307 80 312 100" stroke="#FF6347" stroke-width="4" fill="none" stroke-linecap="round"/>
  
  <!-- Cheek flush -->
  <circle cx="120" cy="300" r="30" fill="#DC143C" opacity="0.6"/>
  <circle cx="392" cy="300" r="30" fill="#DC143C" opacity="0.6"/>
</svg>