<svg width="512" height="512" viewBox="0 0 512 512" fill="none" xmlns="http://www.w3.org/2000/svg">
  <!-- Background circle -->
  <circle cx="256" cy="256" r="240" fill="#FFD700" stroke="#FFA500" stroke-width="8"/>
  
  <!-- Sunglasses frame -->
  <rect x="120" y="170" width="80" height="60" rx="30" fill="#2F4F4F" stroke="#000" stroke-width="4"/>
  <rect x="312" y="170" width="80" height="60" rx="30" fill="#2F4F4F" stroke="#000" stroke-width="4"/>
  
  <!-- Sunglasses lenses -->
  <ellipse cx="160" cy="200" rx="35" ry="25" fill="#000"/>
  <ellipse cx="352" cy="200" rx="35" ry="25" fill="#000"/>
  
  <!-- Bridge -->
  <rect x="200" y="195" width="112" height="10" rx="5" fill="#2F4F4F"/>
  
  <!-- Cool mouth -->
  <path d="M 200 320 Q 230 340 256 340 Q 282 340 312 320" stroke="#333" stroke-width="6" fill="none" stroke-linecap="round"/>
  
  <!-- Lens reflections -->
  <ellipse cx="145" cy="185" rx="8" ry="6" fill="white" opacity="0.6"/>
  <ellipse cx="337" cy="185" rx="8" ry="6" fill="white" opacity="0.6"/>
  
  <!-- Cool sparkles -->
  <circle cx="100" cy="120" r="4" fill="#00BFFF"/>
  <circle cx="412" cy="120" r="4" fill="#00BFFF"/>
  <path d="M 80 300 L 90 310 L 80 320 L 70 310 Z" fill="#00BFFF"/>
  <path d="M 432 300 L 442 310 L 432 320 L 422 310 Z" fill="#00BFFF"/>
</svg>