<svg width="512" height="512" viewBox="0 0 512 512" fill="none" xmlns="http://www.w3.org/2000/svg">
  <!-- Cat ears -->
  <path d="M 160 120 L 200 60 L 240 120 Z" fill="#FFA500" stroke="#FF8C00" stroke-width="3"/>
  <path d="M 272 120 L 312 60 L 352 120 Z" fill="#FFA500" stroke="#FF8C00" stroke-width="3"/>
  <path d="M 175 100 L 200 80 L 225 100 Z" fill="#FFB6C1"/>
  <path d="M 287 100 L 312 80 L 337 100 Z" fill="#FFB6C1"/>
  
  <!-- Cat face -->
  <ellipse cx="256" cy="280" rx="180" ry="160" fill="#FFA500" stroke="#FF8C00" stroke-width="6"/>
  
  <!-- Cat markings -->
  <ellipse cx="200" cy="240" rx="20" ry="30" fill="#FF8C00"/>
  <ellipse cx="312" cy="240" rx="20" ry="30" fill="#FF8C00"/>
  
  <!-- Eyes -->
  <ellipse cx="200" cy="250" rx="25" ry="35" fill="#32CD32"/>
  <ellipse cx="312" cy="250" rx="25" ry="35" fill="#32CD32"/>
  <ellipse cx="200" cy="255" rx="8" ry="20" fill="#000"/>
  <ellipse cx="312" cy="255" rx="8" ry="20" fill="#000"/>
  
  <!-- Nose -->
  <path d="M 256 300 L 240 320 L 272 320 Z" fill="#FF1493"/>
  
  <!-- Mouth -->
  <path d="M 220 340 Q 256 360 292 340" stroke="#333" stroke-width="4" fill="none" stroke-linecap="round"/>
  
  <!-- Whiskers -->
  <line x1="120" y1="280" x2="180" y2="290" stroke="#333" stroke-width="3" stroke-linecap="round"/>
  <line x1="120" y1="310" x2="180" y2="310" stroke="#333" stroke-width="3" stroke-linecap="round"/>
  <line x1="332" y1="290" x2="392" y2="280" stroke="#333" stroke-width="3" stroke-linecap="round"/>
  <line x1="332" y1="310" x2="392" y2="310" stroke="#333" stroke-width="3" stroke-linecap="round"/>
</svg>