<svg width="512" height="512" viewBox="0 0 512 512" fill="none" xmlns="http://www.w3.org/2000/svg">
  <!-- Background -->
  <rect width="512" height="512" fill="#2F4F4F"/>
  
  <!-- Fire base -->
  <ellipse cx="256" cy="400" rx="120" ry="60" fill="#FF4500"/>
  
  <!-- Fire flames (layered) -->
  <path d="M 256 400 Q 200 350 220 280 Q 240 320 280 300 Q 260 250 300 220 Q 320 280 340 260 Q 310 200 350 180 Q 370 240 380 220 Q 350 160 390 140 Q 410 200 420 180 Q 390 120 430 100 Q 450 160 460 140 Q 430 80 380 60 Q 300 80 256 140 Q 220 80 180 60 Q 130 80 100 140 Q 130 160 110 180 Q 140 200 120 220 Q 150 240 130 260 Q 160 280 140 300 Q 170 320 150 340 Q 180 360 160 380 Q 200 390 256 400 Z" fill="#FF6347"/>
  
  <path d="M 256 380 Q 210 340 230 280 Q 250 310 280 300 Q 260 260 290 240 Q 310 280 330 270 Q 310 220 340 200 Q 360 250 370 230 Q 350 180 380 160 Q 400 210 410 190 Q 380 140 420 120 Q 440 170 450 150 Q 420 100 370 80 Q 310 90 256 140 Q 210 90 180 80 Q 130 100 100 150 Q 130 170 110 190 Q 140 210 120 230 Q 150 250 130 270 Q 160 280 140 300 Q 170 310 150 330 Q 180 340 160 360 Q 200 370 256 380 Z" fill="#FF8C00"/>
  
  <path d="M 256 360 Q 220 330 240 280 Q 260 300 280 290 Q 270 260 290 250 Q 300 280 320 270 Q 310 240 330 220 Q 350 260 360 250 Q 350 210 370 190 Q 390 230 400 220 Q 380 180 410 160 Q 430 200 440 180 Q 410 140 360 120 Q 320 130 256 160 Q 220 130 180 120 Q 130 140 100 180 Q 130 200 110 220 Q 140 230 120 250 Q 150 260 130 270 Q 160 280 140 290 Q 170 300 150 320 Q 180 330 160 350 Q 200 360 256 360 Z" fill="#FFD700"/>
  
  <!-- Inner flame -->
  <path d="M 256 340 Q 230 320 245 290 Q 265 305 280 295 Q 275 275 285 265 Q 295 285 310 280 Q 305 260 320 250 Q 340 275 345 270 Q 340 245 355 235 Q 375 260 380 255 Q 375 230 390 220 Q 410 245 415 240 Q 410 215 425 205 Q 445 230 450 225 Q 445 200 430 190 Q 380 200 256 220 Q 180 200 130 190 Q 145 200 140 225 Q 165 230 160 240 Q 180 245 175 255 Q 195 260 190 270 Q 210 275 205 280 Q 225 285 220 295 Q 240 305 235 320 Q 250 340 256 340 Z" fill="#FFFF00" opacity="0.8"/>
  
  <!-- Sparkles and embers -->
  <circle cx="150" cy="200" r="3" fill="#FFD700"/>
  <circle cx="380" cy="180" r="4" fill="#FF6347"/>
  <circle cx="100" cy="300" r="2" fill="#FFD700"/>
  <circle cx="420" cy="280" r="3" fill="#FF4500"/>
  <circle cx="80" cy="250" r="2" fill="#FFD700"/>
  <circle cx="450" cy="320" r="3" fill="#FF6347"/>
  
  <!-- Additional floating embers -->
  <circle cx="200" cy="100" r="2" fill="#FFD700" opacity="0.8"/>
  <circle cx="320" cy="80" r="2" fill="#FF6347" opacity="0.6"/>
  <circle cx="180" cy="50" r="1" fill="#FFD700" opacity="0.4"/>
  <circle cx="340" cy="40" r="1" fill="#FF4500" opacity="0.3"/>
</svg>