<svg width="512" height="512" viewBox="0 0 512 512" fill="none" xmlns="http://www.w3.org/2000/svg">
  <!-- Background -->
  <rect width="512" height="512" fill="#F0F8FF"/>
  
  <!-- Upper arm -->
  <ellipse cx="200" cy="200" rx="60" ry="120" fill="#FFDBAC" stroke="#D4A574" stroke-width="6" transform="rotate(-20 200 200)"/>
  
  <!-- Bicep muscle (flexed) -->
  <ellipse cx="180" cy="160" rx="50" ry="70" fill="#F4C2A1" stroke="#D4A574" stroke-width="4" transform="rotate(-15 180 160)"/>
  
  <!-- Forearm -->
  <ellipse cx="320" cy="280" rx="45" ry="100" fill="#FFDBAC" stroke="#D4A574" stroke-width="6" transform="rotate(30 320 280)"/>
  
  <!-- Hand/fist -->
  <ellipse cx="380" cy="350" rx="35" ry="45" fill="#FFDBAC" stroke="#D4A574" stroke-width="4" transform="rotate(45 380 350)"/>
  
  <!-- Thumb -->
  <ellipse cx="360" cy="320" rx="15" ry="25" fill="#FFDBAC" stroke="#D4A574" stroke-width="3" transform="rotate(30 360 320)"/>
  
  <!-- Knuckles -->
  <circle cx="375" cy="335" r="4" fill="#D4A574"/>
  <circle cx="385" cy="345" r="4" fill="#D4A574"/>
  <circle cx="395" cy="355" r="4" fill="#D4A574"/>
  
  <!-- Muscle definition lines -->
  <path d="M 160 140 Q 180 150 200 140" stroke="#D4A574" stroke-width="3" fill="none" stroke-linecap="round"/>
  <path d="M 170 180 Q 190 190 210 180" stroke="#D4A574" stroke-width="3" fill="none" stroke-linecap="round"/>
  
  <!-- Power/strength effects -->
  <g transform="translate(120, 120)">
    <path d="M 0 -20 L 6 -6 L 20 -6 L 10 2 L 16 16 L 0 8 L -16 16 L -10 2 L -20 -6 L -6 -6 Z" fill="#FFD700"/>
  </g>
  
  <g transform="translate(280, 100)">
    <path d="M 0 -15 L 4.5 -4.5 L 15 -4.5 L 7.5 1.5 L 12 12 L 0 6 L -12 12 L -7.5 1.5 L -15 -4.5 L -4.5 -4.5 Z" fill="#FFD700"/>
  </g>
  
  <!-- Power lines/motion effects -->
  <path d="M 80 180 L 120 190 M 90 200 L 130 210 M 100 220 L 140 230" stroke="#FF6347" stroke-width="4" stroke-linecap="round"/>
  <path d="M 80 140 L 110 150 M 90 120 L 120 130 M 100 100 L 130 110" stroke="#FF6347" stroke-width="4" stroke-linecap="round"/>
  
  <!-- Sparks/energy -->
  <circle cx="100" cy="160" r="3" fill="#FFD700"/>
  <circle cx="300" cy="120" r="4" fill="#FF6347"/>
  <circle cx="420" cy="200" r="3" fill="#FFD700"/>
  <circle cx="80" cy="250" r="2" fill="#FF6347"/>
  
  <!-- "STRONG" text effect -->
  <path d="M 150 400 L 160 410 L 150 420 L 140 410 Z" fill="#FF6347"/>
  <path d="M 200 420 L 210 430 L 200 440 L 190 430 Z" fill="#FFD700"/>
  <path d="M 250 400 L 260 410 L 250 420 L 240 410 Z" fill="#FF6347"/>
  
  <!-- Sweat drops (effort) -->
  <ellipse cx="140" cy="100" rx="4" ry="8" fill="#87CEEB"/>
  <ellipse cx="220" cy="90" rx="3" ry="6" fill="#87CEEB"/>
</svg>