<svg width="512" height="512" viewBox="0 0 512 512" fill="none" xmlns="http://www.w3.org/2000/svg">
  <!-- Background circle -->
  <circle cx="256" cy="280" r="200" fill="#FFD700" stroke="#FFA500" stroke-width="6"/>
  
  <!-- Party hat -->
  <path d="M 256 80 L 180 240 L 332 240 Z" fill="#FF1493" stroke="#DC143C" stroke-width="4"/>
  
  <!-- Hat decorations -->
  <circle cx="220" cy="180" r="8" fill="#00FFFF"/>
  <circle cx="280" cy="160" r="6" fill="#32CD32"/>
  <circle cx="240" cy="140" r="7" fill="#FFD700"/>
  <circle cx="290" cy="200" r="8" fill="#FF69B4"/>
  <circle cx="210" cy="220" r="6" fill="#9370DB"/>
  
  <!-- Hat pom-pom -->
  <circle cx="256" cy="80" r="15" fill="#FFD700" stroke="#FFA500" stroke-width="3"/>
  
  <!-- Eyes -->
  <circle cx="220" cy="300" r="18" fill="#333"/>
  <circle cx="292" cy="300" r="18" fill="#333"/>
  
  <!-- Happy mouth -->
  <path d="M 200 360 Q 256 400 312 360" stroke="#333" stroke-width="8" fill="none" stroke-linecap="round"/>
  
  <!-- Confetti -->
  <rect x="120" y="150" width="8" height="8" rx="2" fill="#FF1493" transform="rotate(45 124 154)"/>
  <rect x="380" y="180" width="8" height="8" rx="2" fill="#32CD32" transform="rotate(30 384 184)"/>
  <rect x="100" y="350" width="8" height="8" rx="2" fill="#00FFFF" transform="rotate(60 104 354)"/>
  <rect x="400" y="320" width="8" height="8" rx="2" fill="#FFD700" transform="rotate(20 404 324)"/>
  
  <!-- Party streamers -->
  <path d="M 50 200 Q 80 180 110 200 Q 140 220 170 200" stroke="#FF69B4" stroke-width="6" fill="none" stroke-linecap="round"/>
  <path d="M 342 200 Q 372 220 402 200 Q 432 180 462 200" stroke="#9370DB" stroke-width="6" fill="none" stroke-linecap="round"/>
</svg>