<svg width="512" height="512" viewBox="0 0 512 512" fill="none" xmlns="http://www.w3.org/2000/svg">
  <!-- Background -->
  <rect width="512" height="512" fill="#87CEEB"/>
  
  <!-- Peace sign circle -->
  <circle cx="256" cy="256" r="180" fill="#FFD700" stroke="#FFA500" stroke-width="12"/>
  
  <!-- Peace symbol lines -->
  <!-- Vertical line -->
  <line x1="256" y1="106" x2="256" y2="406" stroke="#4169E1" stroke-width="16" stroke-linecap="round"/>
  
  <!-- Left diagonal -->
  <line x1="256" y1="256" x2="128" y2="384" stroke="#4169E1" stroke-width="16" stroke-linecap="round"/>
  
  <!-- Right diagonal -->
  <line x1="256" y1="256" x2="384" y2="384" stroke="#4169E1" stroke-width="16" stroke-linecap="round"/>
  
  <!-- Decorative elements -->
  <!-- Flowers around the peace sign -->
  <g transform="translate(120, 120)">
    <circle cx="0" cy="0" r="12" fill="#FF69B4"/>
    <circle cx="-8" cy="-8" r="8" fill="#FFB6C1"/>
    <circle cx="8" cy="-8" r="8" fill="#FFB6C1"/>
    <circle cx="-8" cy="8" r="8" fill="#FFB6C1"/>
    <circle cx="8" cy="8" r="8" fill="#FFB6C1"/>
    <circle cx="0" cy="0" r="4" fill="#32CD32"/>
  </g>
  
  <g transform="translate(392, 120)">
    <circle cx="0" cy="0" r="12" fill="#FF1493"/>
    <circle cx="-8" cy="-8" r="8" fill="#FFB6C1"/>
    <circle cx="8" cy="-8" r="8" fill="#FFB6C1"/>
    <circle cx="-8" cy="8" r="8" fill="#FFB6C1"/>
    <circle cx="8" cy="8" r="8" fill="#FFB6C1"/>
    <circle cx="0" cy="0" r="4" fill="#32CD32"/>
  </g>
  
  <g transform="translate(120, 392)">
    <circle cx="0" cy="0" r="12" fill="#9370DB"/>
    <circle cx="-8" cy="-8" r="8" fill="#DDA0DD"/>
    <circle cx="8" cy="-8" r="8" fill="#DDA0DD"/>
    <circle cx="-8" cy="8" r="8" fill="#DDA0DD"/>
    <circle cx="8" cy="8" r="8" fill="#DDA0DD"/>
    <circle cx="0" cy="0" r="4" fill="#32CD32"/>
  </g>
  
  <g transform="translate(392, 392)">
    <circle cx="0" cy="0" r="12" fill="#00BFFF"/>
    <circle cx="-8" cy="-8" r="8" fill="#B0E0E6"/>
    <circle cx="8" cy="-8" r="8" fill="#B0E0E6"/>
    <circle cx="-8" cy="8" r="8" fill="#B0E0E6"/>
    <circle cx="8" cy="8" r="8" fill="#B0E0E6"/>
    <circle cx="0" cy="0" r="4" fill="#32CD32"/>
  </g>
  
  <!-- Rainbow sparkles -->
  <circle cx="80" cy="200" r="4" fill="#FF0000"/>
  <circle cx="432" cy="180" r="4" fill="#FF8C00"/>
  <circle cx="60" cy="320" r="4" fill="#32CD32"/>
  <circle cx="452" cy="340" r="4" fill="#4169E1"/>
  
  <!-- Stars -->
  <path d="M 100 100 L 108 118 L 126 118 L 112 128 L 118 146 L 100 136 L 82 146 L 88 128 L 74 118 L 92 118 Z" fill="white"/>
  <path d="M 412 100 L 418 114 L 432 114 L 422 122 L 426 136 L 412 128 L 398 136 L 402 122 L 392 114 L 406 114 Z" fill="white"/>
</svg>