<svg width="512" height="512" viewBox="0 0 512 512" fill="none" xmlns="http://www.w3.org/2000/svg">
  <!-- Background circle -->
  <circle cx="256" cy="256" r="240" fill="#FFD700" stroke="#FFA500" stroke-width="8"/>
  
  <!-- Star eyes -->
  <g transform="translate(180, 200)">
    <path d="M 0 -20 L 6 -6 L 20 -6 L 10 2 L 16 16 L 0 8 L -16 16 L -10 2 L -20 -6 L -6 -6 Z" fill="#FF1493"/>
  </g>
  
  <g transform="translate(332, 200)">
    <path d="M 0 -20 L 6 -6 L 20 -6 L 10 2 L 16 16 L 0 8 L -16 16 L -10 2 L -20 -6 L -6 -6 Z" fill="#FF1493"/>
  </g>
  
  <!-- Excited mouth -->
  <ellipse cx="256" cy="340" rx="40" ry="25" fill="#333"/>
  <ellipse cx="256" cy="335" rx="35" ry="15" fill="#FFD700"/>
  
  <!-- Sparkles around the face -->
  <g transform="translate(120, 150)">
    <path d="M 0 -12 L 3 -3 L 12 -3 L 6 1 L 9 10 L 0 5 L -9 10 L -6 1 L -12 -3 L -3 -3 Z" fill="white"/>
  </g>
  
  <g transform="translate(380, 180)">
    <path d="M 0 -10 L 2.5 -2.5 L 10 -2.5 L 5 1 L 7.5 8.5 L 0 4 L -7.5 8.5 L -5 1 L -10 -2.5 L -2.5 -2.5 Z" fill="white"/>
  </g>
  
  <g transform="translate(150, 350)">
    <path d="M 0 -8 L 2 -2 L 8 -2 L 4 1 L 6 7 L 0 3 L -6 7 L -4 1 L -8 -2 L -2 -2 Z" fill="white"/>
  </g>
  
  <g transform="translate(370, 320)">
    <path d="M 0 -8 L 2 -2 L 8 -2 L 4 1 L 6 7 L 0 3 L -6 7 L -4 1 L -8 -2 L -2 -2 Z" fill="white"/>
  </g>
  
  <!-- More small sparkles -->
  <circle cx="100" cy="250" r="3" fill="white"/>
  <circle cx="400" cy="280" r="4" fill="white"/>
  <circle cx="130" cy="120" r="2" fill="white"/>
  <circle cx="390" cy="120" r="2" fill="white"/>
  
  <!-- Large background stars -->
  <g transform="translate(80, 380)">
    <path d="M 0 -15 L 4.5 -4.5 L 15 -4.5 L 7.5 1.5 L 12 12 L 0 6 L -12 12 L -7.5 1.5 L -15 -4.5 L -4.5 -4.5 Z" fill="#FFD700" opacity="0.6"/>
  </g>
  
  <g transform="translate(430, 400)">
    <path d="M 0 -15 L 4.5 -4.5 L 15 -4.5 L 7.5 1.5 L 12 12 L 0 6 L -12 12 L -7.5 1.5 L -15 -4.5 L -4.5 -4.5 Z" fill="#FFD700" opacity="0.6"/>
  </g>
</svg>